STARTFONT 2.1
FONT -FontForge-Saira-Bold-I-Normal--60-430-100-100-P-321-ISO10646-1
SIZE 43 100 100
FONTBOUNDINGBOX 71 60 -6 -12
COMMENT "Generated by fontforge, http://fontforge.sourceforge.net"
COMMENT "Copyright 2020 The Saira Project Authors (https://github.com/Omnibus-Type/Saira)"
STARTPROPERTIES 40
FOUNDRY "FontForge"
FAMILY_NAME "Saira"
WEIGHT_NAME "Bold"
SLANT "I"
SETWIDTH_NAME "Normal"
ADD_STYLE_NAME ""
PIXEL_SIZE 60
POINT_SIZE 430
RESOLUTION_X 100
RESOLUTION_Y 100
SPACING "P"
AVERAGE_WIDTH 321
CHARSET_REGISTRY "ISO10646"
CHARSET_ENCODING "1"
FONTNAME_REGISTRY ""
CHARSET_COLLECTIONS "ISO10646-1"
FONT_NAME "Saira-BoldItalic"
FACE_NAME "Saira Bold Italic"
COPYRIGHT "Copyright 2020 The Saira Project Authors (https://github.com/Omnibus-Type/Saira)"
FONT_VERSION "1.101"
FONT_ASCENT 48
FONT_DESCENT 12
UNDERLINE_POSITION -11
UNDERLINE_THICKNESS 3
X_HEIGHT 30
CAP_HEIGHT 40
RAW_ASCENT 800
RAW_DESCENT 200
ITALIC_ANGLE 4992
NORM_SPACE 15
RELATIVE_WEIGHT 70
RELATIVE_SETWIDTH 50
SUPERSCRIPT_X 4
SUPERSCRIPT_Y 21
SUPERSCRIPT_SIZE 36
SUBSCRIPT_X 0
SUBSCRIPT_Y 4
SUBSCRIPT_SIZE 36
AVG_LOWERCASE_WIDTH 324
AVG_UPPERCASE_WIDTH 395
ENDPROPERTIES
CHARS 128
STARTCHAR CR
ENCODING 13
SWIDTH 600 0
DWIDTH 36 0
BBX 1 1 0 0
BITMAP
00
ENDCHAR
STARTCHAR space
ENCODING 32
SWIDTH 258 0
DWIDTH 15 0
BBX 1 1 0 0
BITMAP
00
ENDCHAR
STARTCHAR exclam
ENCODING 33
SWIDTH 331 0
DWIDTH 20 0
BBX 19 41 2 0
BITMAP
00FFE0
00FFE0
00FFE0
01FFC0
01FFC0
01FFC0
01FFC0
01FF80
01FF80
03FF80
03FF00
03FF00
03FF00
03FF00
03FE00
03FE00
03FE00
07FC00
07FC00
07FC00
07F800
07F800
07F800
07F800
07F000
0FF000
0FF000
000000
000000
000000
000000
000000
3FF000
7FF000
7FE000
7FE000
7FE000
FFE000
FFC000
FFC000
FFC000
ENDCHAR
STARTCHAR quotedbl
ENCODING 34
SWIDTH 474 0
DWIDTH 28 0
BBX 23 15 7 26
BITMAP
3FE3FE
3FC3FC
3FC3FC
7FC7FC
7FC7FC
7F87F8
7F87F8
7F87F8
7F07F0
7F07F0
7F0FF0
FF0FE0
FE0FE0
FE0FE0
FE0FE0
ENDCHAR
STARTCHAR numbersign
ENCODING 35
SWIDTH 726 0
DWIDTH 44 0
BBX 40 41 2 0
BITMAP
00001FC07F
00001F807E
00003F80FE
00003F00FC
00007F01FC
00007E01F8
0000FE03F8
0000FC03F0
0001FC07F0
0001F807E0
01FFFFFFFF
03FFFFFFFF
03FFFFFFFF
03FFFFFFFF
03FFFFFFFF
03FFFFFFFE
040FC03F00
001FC07F00
001F807F00
003F80FE00
003F80FE00
007F00FC00
007F01FC00
007E01F800
00FE03F800
7FFFFFFFE0
7FFFFFFFE0
7FFFFFFFE0
7FFFFFFFC0
FFFFFFFFC0
07F00FC000
07F01FC000
07E01F8000
0FE03F8000
0FC03F0000
1FC07F0000
1F807E0000
3F80FE0000
3F00FC0000
7F01FC0000
7E01FC0000
ENDCHAR
STARTCHAR dollar
ENCODING 36
SWIDTH 538 0
DWIDTH 32 0
BBX 30 42 2 0
BITMAP
0000FF00
0000FE00
0000FE00
0000FE00
0000FE00
001FFFF0
007FFFFC
01FFFFFC
03FFFFF8
03FFFFF8
07FFFFF8
07FFFFF8
0FFFF8F8
0FFBF800
0FFFF000
0FFFF000
1FFFF000
1FFFF000
1FFFFF00
1FFFFFC0
1FFFFFE0
0FFFFFE0
0FFFFFF0
03FFFFF0
00FFFFF0
001FFFE0
001FFFE0
001FFFE0
003FBFE0
003FFFE0
7FBFFFC0
7FFFFFC0
7FFFFFC0
7FFFFF80
7FFFFF00
FFFFFE00
FFFFFC00
1FFFE000
00FE0000
00FE0000
00FE0000
01FE0000
ENDCHAR
STARTCHAR percent
ENCODING 37
SWIDTH 885 0
DWIDTH 53 0
BBX 47 45 4 -2
BITMAP
007F00000000
03FFE0000008
0FFFF00003F0
0FFFF00007E0
1FFFF0000FC0
1F81F0000FC0
1F01F0001F80
3F01F0003F00
3F01F0007E00
3E03F000FC00
3E03F001F800
7E03F003F000
7E03E007E000
7E07E007E000
7C07E00FC000
7C07E01F8000
FC07C03F0000
FC0FC07E0000
FC0FC0FC0000
FFFF81F80000
7FFF83F80000
7FFF03F00100
1FFC07E07FFC
00000FC1FFFE
00001F81FFFE
00003F03FFFE
00007E03F07E
0000FC07E03E
0001FC07E07E
0001F807E07E
0003F007C07E
0007E00FC07E
000FC00FC07C
001F800FC07C
003F000FC0FC
007E000F80FC
00FE001F80FC
00FC001F80F8
01F8001F81F8
03F0001F81F8
07E0001FFFF0
0FC0001FFFF0
1F80000FFFE0
00000007FFC0
000000001400
ENDCHAR
STARTCHAR ampersand
ENCODING 38
SWIDTH 749 0
DWIDTH 45 0
BBX 43 42 2 0
BITMAP
00000FFE0000
0003FFFFFE00
000FFFFFFF00
003FFFFFFF00
00FFFFFFFE00
01FFFFFFFE00
01FFFFFFFE00
03FFFFFFFE00
03FFC0000200
07FF00000000
07FE00000000
07FE00000000
07FE00000000
07FC00000000
07FC00000000
07FC00000000
07FE00000000
07FFE2000000
03FFFC1FFFE0
01FFFC1FFFE0
007FFC1FFFE0
00FFFC3FFFC0
03FFFC3FFFC0
0FFFF83FFFC0
1FFFF83FFFC0
3FF8007FE000
3FF0007FE000
7FE0007FE000
7FE0007FE000
7FE0007FC000
FFC000FFC000
FFC000FFC000
FFC000FFC000
FFE000FFC000
FFF000FF8000
FFFFFFFF8000
FFFFFFFF8000
7FFFFFFF8000
3FFFFFFF0000
1FFFFFFF0000
0FFFFFFF0000
01FFFFFC0000
ENDCHAR
STARTCHAR quotesingle
ENCODING 39
SWIDTH 274 0
DWIDTH 16 0
BBX 11 15 7 26
BITMAP
3FE0
3FE0
3FC0
3FC0
3FC0
7FC0
7F80
7F80
7F80
7F00
7F00
7F00
7E00
FE00
FE00
ENDCHAR
STARTCHAR parenleft
ENCODING 40
SWIDTH 357 0
DWIDTH 21 0
BBX 24 54 3 -9
BITMAP
00007F
0000FC
0001FC
0003F8
000FF0
001FE0
003FC0
007F80
007F80
00FF00
01FF00
01FE00
03FE00
03FC00
07FC00
07FC00
07F800
0FF800
0FF800
0FF000
1FF000
1FF000
1FF000
1FE000
3FE000
3FE000
3FE000
3FC000
7FC000
7FC000
7FC000
7FC000
7F8000
7F8000
FF8000
FF8000
FF8000
FF8000
FF8000
FF8000
FF0000
FF0000
7F0000
7F0000
7F8000
7F8000
3F8000
3F8000
1F8000
1FC000
0FC000
0FE000
07E000
03F000
ENDCHAR
STARTCHAR parenright
ENCODING 41
SWIDTH 357 0
DWIDTH 21 0
BBX 23 54 -4 -9
BITMAP
001F80
000FC0
000FE0
0007E0
0007F0
0003F8
0003F8
0003F8
0001FC
0001FC
0001FC
0001FE
0001FE
0001FE
0001FE
0001FE
0001FE
0001FE
0003FE
0003FE
0003FE
0003FE
0003FE
0003FC
0007FC
0007FC
0007FC
0007FC
0007F8
000FF8
000FF8
000FF8
000FF0
001FF0
001FF0
001FF0
001FE0
003FE0
003FE0
003FC0
007FC0
007F80
00FF80
00FF00
01FF00
01FE00
03FC00
03F800
07F800
0FE000
1FC000
3F8000
7F0000
FE0000
ENDCHAR
STARTCHAR asterisk
ENCODING 42
SWIDTH 454 0
DWIDTH 27 0
BBX 23 22 5 19
BITMAP
001F00
001F00
001E00
081E04
1C1E1C
1E1C3C
3F3CFE
7FBDFE
0FFFF8
03FFC0
01FF00
01FE00
0FFF80
3FFFE0
FF77F8
FC71F8
78F0F0
60F060
40F000
01F000
01F000
01F000
ENDCHAR
STARTCHAR plus
ENCODING 43
SWIDTH 546 0
DWIDTH 33 0
BBX 25 24 4 3
BITMAP
001FE000
001FC000
001FC000
003FC000
003FC000
003F8000
003F8000
003F8000
7FFFFF80
7FFFFF80
7FFFFF80
FFFFFF80
FFFFFF00
FFFFFF00
FFFFFF00
00FE0000
00FE0000
00FE0000
01FE0000
01FC0000
01FC0000
01FC0000
03FC0000
03FC0000
ENDCHAR
STARTCHAR comma
ENCODING 44
SWIDTH 299 0
DWIDTH 18 0
BBX 14 18 -1 -9
BITMAP
0FFC
0FFC
1FFC
1FFC
1FF8
1FF8
1FF8
3FF8
3FF0
03F0
07F0
07F0
07E0
1FE0
FFC0
FF80
FF00
C000
ENDCHAR
STARTCHAR hyphen
ENCODING 45
SWIDTH 379 0
DWIDTH 23 0
BBX 18 8 3 13
BITMAP
7FFFC0
7FFFC0
7FFFC0
7FFF80
7FFF80
FFFF80
FFFF80
FFFF80
ENDCHAR
STARTCHAR period
ENCODING 46
SWIDTH 299 0
DWIDTH 18 0
BBX 12 9 1 0
BITMAP
3FF0
3FF0
7FF0
7FE0
7FE0
7FE0
7FE0
FFE0
FFC0
ENDCHAR
STARTCHAR slash
ENCODING 47
SWIDTH 412 0
DWIDTH 25 0
BBX 37 48 -5 -3
BITMAP
0000000FF8
0000000FF0
0000001FF0
0000003FE0
0000003FC0
0000007FC0
0000007F80
000000FF80
000001FF00
000001FE00
000003FE00
000003FC00
000007FC00
000007F800
00000FF000
00001FF000
00001FE000
00003FE000
00003FC000
00007FC000
0000FF8000
0000FF0000
0001FF0000
0001FE0000
0003FE0000
0003FC0000
0007F80000
000FF80000
000FF00000
001FF00000
001FE00000
003FE00000
007FC00000
007F800000
00FF800000
00FF000000
01FF000000
01FE000000
03FC000000
07FC000000
07F8000000
0FF8000000
0FF0000000
1FE0000000
3FE0000000
3FC0000000
7FC0000000
FF80000000
ENDCHAR
STARTCHAR zero
ENCODING 48
SWIDTH 663 0
DWIDTH 40 0
BBX 38 42 2 0
BITMAP
00003FF000
000FFFFFC0
003FFFFFE0
00FFFFFFF0
00FFFFFFF8
01FFFFFFF8
03FFFFFFFC
03FFFFFFFC
07FFC03FFC
07FF001FFC
07FF001FFC
0FFE001FFC
0FFE001FFC
0FFE001FF8
0FFC001FF8
1FFC001FF8
1FFC003FF8
1FFC003FF8
1FF8003FF8
1FF8003FF0
3FF8003FF0
3FF8007FF0
3FF0007FF0
3FF0007FF0
3FF0007FE0
7FF000FFE0
7FF000FFE0
7FE000FFE0
7FE000FFC0
7FE001FFC0
7FE001FFC0
FFE001FFC0
FFE003FF80
FFE007FF80
FFFC1FFF80
FFFFFFFF00
7FFFFFFF00
7FFFFFFE00
7FFFFFFC00
3FFFFFF800
1FFFFFF000
07FFFFC000
ENDCHAR
STARTCHAR one
ENCODING 49
SWIDTH 400 0
DWIDTH 24 0
BBX 21 41 4 0
BITMAP
000FF8
003FF8
00FFF0
07FFF0
1FFFF0
7FFFF0
7FFFE0
7FFFE0
7FFFE0
7FFFE0
FFFFE0
F8FFC0
E0FFC0
81FFC0
01FFC0
01FFC0
01FF80
01FF80
03FF80
03FF80
03FF00
03FF00
03FF00
07FF00
07FF00
07FE00
07FE00
0FFE00
0FFE00
0FFE00
0FFC00
0FFC00
1FFC00
1FFC00
1FF800
1FF800
1FF800
3FF800
3FF800
3FF000
3FF000
ENDCHAR
STARTCHAR two
ENCODING 50
SWIDTH 625 0
DWIDTH 38 0
BBX 37 42 0 0
BITMAP
00003FF000
003FFFFF80
007FFFFFE0
007FFFFFF0
007FFFFFF0
007FFFFFF8
007FFFFFF8
00FFFFFFF8
00FF00FFF8
0000003FF8
0000001FF8
0000001FF8
0000003FF8
0000003FF0
0000003FF0
0000007FF0
000001FFE0
000007FFE0
00003FFFC0
0001FFFFC0
0007FFFF80
003FFFFF00
00FFFFFC00
01FFFFF000
03FFFFC000
07FFFE0000
07FFF00000
0FFFC00000
0FFE000000
1FFC000000
1FF8000000
1FF8000000
3FF0000000
3FF0000000
3FFFFFFF00
3FFFFFFF00
7FFFFFFF00
7FFFFFFE00
7FFFFFFE00
7FFFFFFE00
7FFFFFFE00
FFFFFFFE00
ENDCHAR
STARTCHAR three
ENCODING 51
SWIDTH 620 0
DWIDTH 37 0
BBX 37 42 0 0
BITMAP
0000FFE000
007FFFFE00
00FFFFFFC0
00FFFFFFE0
00FFFFFFF0
00FFFFFFF0
00FFFFFFF8
01FFFFFFF8
01E000FFF8
0000003FF8
0000003FF8
0000003FF8
0000003FF8
0000003FF0
0000007FF0
0000007FE0
000000FFE0
000FFFFFC0
000FFFFF80
000FFFFE00
000FFFF800
000FFFF800
001FFFFE00
001FFFFF00
001FFFFF00
000007FF80
000003FF80
000001FF80
000001FF80
000001FF80
000003FF80
000003FF80
000007FF00
00000FFF00
7FC0FFFF00
7FFFFFFE00
7FFFFFFE00
7FFFFFFC00
7FFFFFF800
FFFFFFF000
FFFFFFC000
3FFFFE0000
ENDCHAR
STARTCHAR four
ENCODING 52
SWIDTH 664 0
DWIDTH 40 0
BBX 37 41 1 0
BITMAP
00000FFF00
00001FFE00
00001FFC00
00003FF800
00007FF800
0000FFF000
0000FFE000
0001FFC000
0003FF8000
0007FF8000
0007FF0000
000FFE0000
001FFC0000
003FF80000
003FF81FC0
007FF01FC0
00FFE03FC0
01FFC03FC0
01FF807F80
03FF807F80
07FF00FF80
0FFE00FF80
0FFC01FF00
1FF801FF00
3FF803FF00
7FFFFFFFF8
7FFFFFFFF8
7FFFFFFFF8
7FFFFFFFF0
FFFFFFFFF0
FFFFFFFFF0
FFFFFFFFF0
FFFFFFFFF0
00000FFC00
00000FFC00
00001FFC00
00001FF800
00001FF800
00001FF800
00001FF800
00003FF800
ENDCHAR
STARTCHAR five
ENCODING 53
SWIDTH 639 0
DWIDTH 38 0
BBX 36 41 2 0
BITMAP
00FFFFFFF0
00FFFFFFE0
00FFFFFFE0
00FFFFFFE0
00FFFFFFE0
01FFFFFFC0
01FFFFFFC0
01FFFFFFC0
01FF000000
01FF000000
03FE000000
03FE000000
03FE000000
03FE000000
07FC000000
07FCFFC000
07FFFFF800
07FFFFFE00
07FFFFFF00
0FFFFFFF00
0FFFFFFF80
0FFFFFFF80
0FFFFFFF80
080007FF80
000003FF80
000003FF80
000003FF80
000003FF80
000003FF80
000003FF00
000003FF00
000007FF00
00000FFF00
7F80FFFE00
7FFFFFFE00
7FFFFFFC00
FFFFFFFC00
FFFFFFF800
FFFFFFE000
FFFFFFC000
7FFFFE0000
ENDCHAR
STARTCHAR six
ENCODING 54
SWIDTH 676 0
DWIDTH 41 0
BBX 38 42 3 0
BITMAP
00003FF800
0007FFFFFC
001FFFFFF8
003FFFFFF8
007FFFFFF8
00FFFFFFF8
01FFFFFFF8
03FFFFFFF0
03FFF001F0
07FF800000
07FF000000
0FFE000000
0FFE000000
0FFC000000
1FFC000000
1FFC000000
1FF80FF000
1FF9FFFE00
3FFBFFFF80
3FFFFFFFC0
3FFFFFFFC0
3FFFFFFFC0
7FFFFFFFE0
7FFFFFFFE0
7FFC00FFE0
7FF000FFE0
7FE0007FE0
7FE0007FE0
FFE0007FE0
FFE000FFC0
FFC000FFC0
FFC000FFC0
FFC001FFC0
FFE001FF80
FFF80FFF80
FFFFFFFF00
7FFFFFFF00
7FFFFFFE00
3FFFFFFC00
3FFFFFF800
0FFFFFF000
03FFFF8000
ENDCHAR
STARTCHAR seven
ENCODING 55
SWIDTH 584 0
DWIDTH 35 0
BBX 35 41 3 0
BITMAP
0FFFFFFFE0
0FFFFFFFE0
0FFFFFFFE0
0FFFFFFFC0
1FFFFFFFC0
1FFFFFFFC0
1FFFFFFFC0
1FFFFFFF80
000007FF80
000007FF00
00000FFE00
00001FFE00
00001FFC00
00003FF800
00007FF800
00007FF000
0000FFF000
0001FFE000
0001FFC000
0003FFC000
0007FF8000
0007FF0000
000FFF0000
001FFE0000
001FFC0000
003FFC0000
007FF80000
007FF80000
00FFF00000
01FFE00000
01FFE00000
03FFC00000
07FF800000
07FF800000
0FFF000000
1FFE000000
1FFE000000
3FFC000000
7FFC000000
7FF8000000
FFF0000000
ENDCHAR
STARTCHAR eight
ENCODING 56
SWIDTH 695 0
DWIDTH 42 0
BBX 40 42 2 0
BITMAP
00003FF800
0007FFFFC0
001FFFFFF0
007FFFFFFC
00FFFFFFFE
01FFFFFFFE
01FFFFFFFE
03FFFFFFFF
03FFC00FFF
03FF8007FF
07FF0007FF
07FF0007FE
07FE0007FE
07FE0007FE
07FE000FFE
07FE000FFC
07FE001FFC
03FF80FFF8
03FFFFFFF0
01FFFFFFC0
007FFFFF00
007FFFFF00
03FFFFFFC0
0FFFFFFFE0
1FFFFFFFE0
1FF8007FF0
3FF0003FF0
3FF0003FF0
7FF0003FF0
7FE0003FF0
7FE0007FF0
FFE0007FF0
FFE0007FE0
FFE000FFE0
FFF803FFE0
FFFFFFFFC0
7FFFFFFFC0
7FFFFFFF80
3FFFFFFF00
1FFFFFFE00
0FFFFFF800
01FFFFE000
ENDCHAR
STARTCHAR nine
ENCODING 57
SWIDTH 676 0
DWIDTH 41 0
BBX 38 42 2 0
BITMAP
00007FE000
000FFFFF80
003FFFFFE0
00FFFFFFF0
01FFFFFFF8
01FFFFFFF8
03FFFFFFFC
07FFFFFFFC
07FF803FFC
07FE001FFC
0FFE000FFC
0FFC000FFC
0FFC000FFC
0FFC001FFC
1FF8001FFC
1FF8001FF8
1FF8003FF8
1FFC003FF8
1FFE00FFF8
1FFFFFFFF8
1FFFFFFFF0
0FFFFFFFF0
0FFFFFFFF0
07FFFFFFF0
03FFFF7FF0
01FFFC7FE0
0005807FE0
000000FFE0
000000FFC0
000000FFC0
000001FFC0
000001FFC0
000003FF80
000007FF80
3FE1FFFF00
3FFFFFFF00
7FFFFFFE00
7FFFFFFC00
7FFFFFF800
7FFFFFF000
FFFFFFC000
3FFFFF0000
ENDCHAR
STARTCHAR colon
ENCODING 58
SWIDTH 299 0
DWIDTH 18 0
BBX 17 31 1 0
BITMAP
01FF80
03FF80
03FF00
03FF00
03FF00
03FF00
07FF00
07FE00
07FE00
000000
000000
000000
000000
000000
000000
000000
000000
000000
000000
000000
000000
000000
3FF000
3FF000
3FF000
7FE000
7FE000
7FE000
7FE000
FFE000
FFC000
ENDCHAR
STARTCHAR semicolon
ENCODING 59
SWIDTH 299 0
DWIDTH 18 0
BBX 19 40 -1 -9
BITMAP
007FE0
00FFE0
00FFC0
00FFC0
00FFC0
00FFC0
01FFC0
01FF80
01FF80
000000
000000
000000
000000
000000
000000
000000
000000
000000
000000
000000
000000
000000
0FFC00
0FFC00
1FFC00
1FFC00
1FF800
1FF800
1FF800
3FF800
3FF000
03F000
07F000
07F000
07E000
1FE000
FFC000
FF8000
FF0000
C00000
ENDCHAR
STARTCHAR less
ENCODING 60
SWIDTH 547 0
DWIDTH 33 0
BBX 27 25 4 3
BITMAP
00000020
000000E0
000007E0
00003FE0
0001FFC0
000FFFC0
007FFFC0
03FFFF80
0FFFFC00
7FFFE000
7FFF0000
7FF80000
FFC00000
FFC00000
FFF00000
FFFE0000
FFFF8000
3FFFF000
07FFFC00
01FFFE00
003FFE00
000FFE00
0001FC00
00007C00
00000C00
ENDCHAR
STARTCHAR equal
ENCODING 61
SWIDTH 546 0
DWIDTH 33 0
BBX 29 20 2 5
BITMAP
0FFFFFF8
0FFFFFF0
0FFFFFF0
0FFFFFF0
1FFFFFF0
1FFFFFE0
1FFFFFE0
00000000
00000000
00000000
00000000
00000000
00000000
3FFFFFC0
7FFFFFC0
7FFFFF80
7FFFFF80
7FFFFF80
FFFFFF80
FFFFFF00
ENDCHAR
STARTCHAR greater
ENCODING 62
SWIDTH 547 0
DWIDTH 33 0
BBX 27 25 2 3
BITMAP
04000000
07000000
07E00000
0FF80000
0FFF0000
0FFFC000
0FFFF800
03FFFE00
00FFFF80
001FFFE0
0007FFE0
0000FFE0
00001FE0
0000FFE0
0007FFC0
003FFFC0
01FFFF80
0FFFFE00
7FFFF000
7FFF8000
7FFC0000
7FE00000
FF000000
F8000000
C0000000
ENDCHAR
STARTCHAR question
ENCODING 63
SWIDTH 525 0
DWIDTH 32 0
BBX 27 42 5 0
BITMAP
003FF000
1FFFFF00
1FFFFF80
1FFFFFC0
1FFFFFE0
1FFFFFE0
3FFFFFE0
3FFFFFE0
3800FFE0
00007FE0
00007FE0
00007FE0
00007FE0
0000FFE0
0000FFC0
0001FFC0
000FFF80
007FFF80
00FFFF00
01FFFE00
03FFF800
03FFC000
07FE0000
07FC0000
07F80000
07F80000
0FF80000
0FF80000
00000000
00000000
00000000
00000000
00000000
3FF00000
3FF00000
3FF00000
7FF00000
7FE00000
7FE00000
7FE00000
7FE00000
FFE00000
ENDCHAR
STARTCHAR at
ENCODING 64
SWIDTH 957 0
DWIDTH 57 0
BBX 52 48 3 -6
BITMAP
000003FFFC0000
0001FFFFFFFC00
000FFFFFFFFF80
003FFFFFFFFFC0
007FC000003FE0
00FC00000003E0
01F800000001F0
01F000000000F0
03E000000000F0
03C000000000F0
07C000000000F0
078007F07F80F0
07801FFC7F80F0
0F807FFEFF80F0
0F007FFFFF00F0
0F00FFFFFF00F0
0F00FFFFFF00F0
0F01FFFFFF00F0
1E01FF03FF01E0
1E03FE01FE01E0
1E03FE01FE01E0
1E03FC01FE01E0
3E03FC03FE01E0
3C07FC03FC03C0
3C07FC03FC03C0
3C07F803FC03C0
3C07F807FC03C0
3C07F807FC07C0
7807F807F80780
780FF80FF80780
780FF80FF80780
780FFFFFF80F00
780FFFFFF80F00
7807FFFFF01E00
7807FFEFFFFE00
F807FFEFFFFC00
F003FFCFFFF800
F000FE0FFF0000
F0000000000000
F8000000000000
F8000000000000
78000000000000
7C000000000000
7E000000000000
3FF00000000000
1FFFFFFFC00000
07FFFFFFC00000
00FFFFFFC00000
ENDCHAR
STARTCHAR A
ENCODING 65
SWIDTH 706 0
DWIDTH 42 0
BBX 42 41 -3 0
BITMAP
000003FFF800
000003FFF800
000007FFF800
000007FFF800
00000FFFFC00
00000FFFFC00
00001FFFFC00
00001FFFFC00
00003FFFFC00
00007FEFFC00
00007FEFFC00
0000FFC7FC00
0000FFC7FC00
0001FF87FE00
0001FF87FE00
0003FF07FE00
0003FF07FE00
0007FE07FE00
0007FE07FE00
000FFC07FE00
001FFC03FE00
001FF803FE00
003FF003FF00
003FF003FF00
007FE003FF00
007FFFFFFF00
00FFFFFFFF00
00FFFFFFFF00
01FFFFFFFF00
01FFFFFFFF00
03FFFFFFFF00
03FFFFFFFF80
07FFFFFFFF80
0FFE0001FF80
0FFC0001FF80
1FFC0001FF80
1FF80001FF80
3FF80001FF80
3FF00001FF80
7FF00001FFC0
FFE00001FFC0
ENDCHAR
STARTCHAR B
ENCODING 66
SWIDTH 674 0
DWIDTH 40 0
BBX 40 41 1 0
BITMAP
007FFFFFE0
007FFFFFF8
00FFFFFFFC
00FFFFFFFE
00FFFFFFFF
00FFFFFFFF
00FFFFFFFF
01FFC03FFF
01FFC007FF
01FF8007FF
01FF8007FF
03FF8007FF
03FF8007FF
03FF0007FE
03FF000FFE
03FF001FFC
07FF007FF8
07FFFFFFF0
07FFFFFFC0
07FFFFFF00
07FFFFFF00
0FFFFFFFC0
0FFFFFFFE0
0FFFFFFFF0
0FFC007FF0
1FFC003FF0
1FFC003FF0
1FF8003FF0
1FF8003FF0
1FF8003FF0
3FF8007FF0
3FF8007FF0
3FF000FFE0
3FFFFFFFE0
3FFFFFFFE0
7FFFFFFFC0
7FFFFFFFC0
7FFFFFFF80
7FFFFFFF00
7FFFFFFC00
FFFFFFE000
ENDCHAR
STARTCHAR C
ENCODING 67
SWIDTH 573 0
DWIDTH 34 0
BBX 34 42 3 0
BITMAP
00003FF000
000FFFFFC0
003FFFFFC0
007FFFFFC0
01FFFFFF80
01FFFFFF80
03FFFFFF80
07FFFFFF80
07FFE00180
07FF000000
0FFE000000
0FFE000000
1FFC000000
1FFC000000
1FF8000000
1FF8000000
3FF8000000
3FF8000000
3FF0000000
3FF0000000
7FF0000000
7FF0000000
7FF0000000
7FE0000000
7FE0000000
FFE0000000
FFE0000000
FFE0000000
FFC0000000
FFC0000000
FFC0000000
FFC0000000
FFE0000000
FFF0000000
FFFF83E000
FFFFFFE000
FFFFFFE000
7FFFFFE000
7FFFFFC000
3FFFFFC000
1FFFFFC000
03FFFFC000
ENDCHAR
STARTCHAR D
ENCODING 68
SWIDTH 690 0
DWIDTH 41 0
BBX 40 41 1 0
BITMAP
007FFFFF80
007FFFFFF0
00FFFFFFFC
00FFFFFFFE
00FFFFFFFE
00FFFFFFFE
00FFFFFFFF
01FFFFFFFF
01FFC00FFF
01FF8007FF
01FF8007FF
03FF8007FF
03FF8007FF
03FF8007FF
03FF0007FE
03FF0007FE
07FF0007FE
07FF000FFE
07FF000FFE
07FE000FFC
07FE000FFC
0FFE001FFC
0FFE001FFC
0FFC001FFC
0FFC001FF8
1FFC001FF8
1FFC003FF8
1FFC003FF8
1FF8003FF0
1FF8007FF0
3FF8007FF0
3FF800FFF0
3FF801FFE0
3FFFFFFFE0
3FFFFFFFC0
7FFFFFFFC0
7FFFFFFF80
7FFFFFFF00
7FFFFFFE00
7FFFFFF800
FFFFFF8000
ENDCHAR
STARTCHAR E
ENCODING 69
SWIDTH 611 0
DWIDTH 37 0
BBX 39 41 1 0
BITMAP
007FFFFFFE
007FFFFFFC
00FFFFFFFC
00FFFFFFFC
00FFFFFFFC
00FFFFFFF8
00FFFFFFF8
01FFFFFFF8
01FFC00000
01FF800000
01FF800000
03FF800000
03FF800000
03FF800000
03FF000000
03FF000000
07FFFFFF00
07FFFFFF00
07FFFFFF00
07FFFFFE00
07FFFFFE00
0FFFFFFE00
0FFFFFFE00
0FFFFFFE00
0FFC000000
1FFC000000
1FFC000000
1FFC000000
1FF8000000
1FF8000000
3FF8000000
3FF8000000
3FF0000000
3FFFFFFE00
3FFFFFFE00
7FFFFFFE00
7FFFFFFE00
7FFFFFFC00
7FFFFFFC00
7FFFFFFC00
FFFFFFFC00
ENDCHAR
STARTCHAR F
ENCODING 70
SWIDTH 571 0
DWIDTH 34 0
BBX 37 41 1 0
BITMAP
007FFFFFF8
007FFFFFF8
00FFFFFFF8
00FFFFFFF8
00FFFFFFF0
00FFFFFFF0
00FFFFFFF0
01FFFFFFF0
01FFC00000
01FF800000
01FF800000
03FF800000
03FF800000
03FF000000
03FF000000
03FF000000
07FF000000
07FF000000
07FFFFFE00
07FFFFFE00
07FFFFFE00
0FFFFFFC00
0FFFFFFC00
0FFFFFFC00
0FFFFFFC00
1FFFFFFC00
1FFC000000
1FFC000000
1FF8000000
1FF8000000
3FF8000000
3FF8000000
3FF0000000
3FF0000000
3FF0000000
7FF0000000
7FF0000000
7FE0000000
7FE0000000
7FE0000000
FFE0000000
ENDCHAR
STARTCHAR G
ENCODING 71
SWIDTH 674 0
DWIDTH 40 0
BBX 39 42 3 0
BITMAP
00003FF800
0007FFFFFE
003FFFFFFC
007FFFFFFC
00FFFFFFFC
01FFFFFFFC
03FFFFFFF8
07FFFFFFF8
07FFE000F8
0FFF000000
0FFE000000
0FFC000000
1FFC000000
1FF8000000
1FF8000000
3FF8000000
3FF8000000
3FF0000000
3FF01FFFE0
7FF01FFFE0
7FF01FFFE0
7FE01FFFE0
7FE01FFFC0
7FE03FFFC0
FFE03FFFC0
FFE03FFFC0
FFC000FF80
FFC000FF80
FFC000FF80
FFC001FF80
FFC001FF80
FFC001FF00
FFE001FF00
FFE001FF00
FFFC03FF00
FFFFFFFF00
FFFFFFFE00
7FFFFFFE00
3FFFFFFE00
1FFFFFFE00
0FFFFFFC00
01FFFFF800
ENDCHAR
STARTCHAR H
ENCODING 72
SWIDTH 724 0
DWIDTH 43 0
BBX 44 41 1 0
BITMAP
007FF0007FF0
007FE0007FE0
00FFE0007FE0
00FFE0007FE0
00FFE000FFE0
00FFC000FFE0
00FFC000FFC0
01FFC000FFC0
01FFC001FFC0
01FF8001FFC0
01FF8001FFC0
03FF8001FF80
03FF8001FF80
03FF8003FF80
03FF0003FF80
03FF0003FF00
07FFFFFFFF00
07FFFFFFFF00
07FFFFFFFF00
07FFFFFFFF00
07FFFFFFFE00
0FFFFFFFFE00
0FFFFFFFFE00
0FFFFFFFFE00
0FFFFFFFFE00
1FFC000FFC00
1FFC000FFC00
1FFC001FFC00
1FF8001FFC00
1FF8001FF800
3FF8001FF800
3FF8001FF800
3FF8003FF800
3FF0003FF800
3FF0003FF000
7FF0003FF000
7FF0003FF000
7FE0007FF000
7FE0007FF000
7FE0007FE000
FFE0007FE000
ENDCHAR
STARTCHAR I
ENCODING 73
SWIDTH 318 0
DWIDTH 19 0
BBX 20 41 1 0
BITMAP
007FF0
007FE0
00FFE0
00FFE0
00FFE0
00FFC0
00FFC0
01FFC0
01FFC0
01FF80
01FF80
03FF80
03FF80
03FF80
03FF00
03FF00
07FF00
07FF00
07FF00
07FE00
07FE00
0FFE00
0FFE00
0FFC00
0FFC00
1FFC00
1FFC00
1FFC00
1FF800
1FF800
3FF800
3FF800
3FF800
3FF000
3FF000
7FF000
7FF000
7FE000
7FE000
7FE000
FFE000
ENDCHAR
STARTCHAR J
ENCODING 74
SWIDTH 405 0
DWIDTH 24 0
BBX 28 41 -2 0
BITMAP
00007FF0
00007FE0
00007FE0
00007FE0
0000FFE0
0000FFE0
0000FFC0
0000FFC0
0001FFC0
0001FFC0
0001FFC0
0001FF80
0001FF80
0003FF80
0003FF80
0003FF80
0003FF00
0003FF00
0007FF00
0007FF00
0007FE00
0007FE00
000FFE00
000FFE00
000FFE00
000FFC00
000FFC00
001FFC00
001FFC00
001FFC00
003FF800
003FF800
007FF800
3FFFF000
3FFFF000
7FFFF000
7FFFE000
7FFFC000
7FFF8000
FFFF0000
FFF00000
ENDCHAR
STARTCHAR K
ENCODING 75
SWIDTH 699 0
DWIDTH 42 0
BBX 46 41 1 0
BITMAP
007FF0007FFC
007FE0007FF0
00FFE000FFE0
00FFE001FFC0
00FFE003FF80
00FFC007FF80
00FFC00FFF00
01FFC01FFE00
01FFC03FFC00
01FF807FF800
01FF807FF000
03FF80FFE000
03FF81FFC000
03FF83FF8000
03FF07FF0000
03FF0FFE0000
07FFFFFC0000
07FFFFFC0000
07FFFFF80000
07FFFFF00000
07FFFFE00000
0FFFFFF00000
0FFFFFF00000
0FFFFFF80000
0FFC3FF80000
1FFC1FFC0000
1FFC1FFC0000
1FFC0FFE0000
1FF80FFE0000
1FF807FF0000
3FF807FF0000
3FF807FF8000
3FF803FF8000
3FF003FFC000
3FF001FFC000
7FF001FFE000
7FF000FFE000
7FE000FFE000
7FE0007FF000
7FE0007FF000
FFE0003FF800
ENDCHAR
STARTCHAR L
ENCODING 76
SWIDTH 540 0
DWIDTH 32 0
BBX 29 41 1 0
BITMAP
007FF000
007FE000
00FFE000
00FFE000
00FFE000
00FFC000
00FFC000
01FFC000
01FFC000
01FF8000
01FF8000
03FF8000
03FF8000
03FF8000
03FF0000
03FF0000
07FF0000
07FF0000
07FF0000
07FE0000
07FE0000
0FFE0000
0FFE0000
0FFC0000
0FFC0000
1FFC0000
1FFC0000
1FFC0000
1FF80000
1FF80000
3FF80000
3FF80000
3FF80000
3FFFFFF8
3FFFFFF8
7FFFFFF0
7FFFFFF0
7FFFFFF0
7FFFFFF0
7FFFFFF0
FFFFFFE0
ENDCHAR
STARTCHAR M
ENCODING 77
SWIDTH 917 0
DWIDTH 55 0
BBX 55 41 1 0
BITMAP
007FFE00007FFE
007FFE0000FFFE
00FFFF0000FFFE
00FFFF0001FFFE
00FFFF0003FFFC
00FFFF0003FFFC
00FFFF0007FFFC
01FFFF0007FFFC
01FFFF000FFFFC
01FFFF800FFFF8
01FFFF801FFFF8
03FFFF803FFFF8
03FFFF803FFFF8
03FFFF807FFFF0
03FFFF807FFFF0
03FEFF80FFBFF0
07FEFFC0FFBFF0
07FE7FC1FF3FF0
07FE7FC3FE7FE0
07FE7FC3FE7FE0
07FC7FC7FC7FE0
0FFC7FC7FC7FE0
0FFC7FCFF8FFE0
0FFC7FEFF8FFC0
0FFC3FFFF0FFC0
1FF83FFFE0FFC0
1FF83FFFE0FFC0
1FF83FFFC1FF80
1FF83FFFC1FF80
1FF03FFF81FF80
3FF03FFF81FF80
3FF03FFF01FF80
3FF01FFF03FF00
3FF01FFE03FF00
3FE01FFC03FF00
7FE01FFC03FF00
7FE01FF803FF00
7FE01FF807FE00
7FE01FF007FE00
7FC00FF007FE00
FFC00FE007FE00
ENDCHAR
STARTCHAR N
ENCODING 78
SWIDTH 729 0
DWIDTH 44 0
BBX 44 41 1 0
BITMAP
007FF0003FF0
007FF8003FF0
00FFF8003FF0
00FFF8007FE0
00FFFC007FE0
00FFFC007FE0
00FFFE007FE0
01FFFE007FC0
01FFFE00FFC0
01FFFF00FFC0
01FFFF00FFC0
03FFFF80FFC0
03FFFF81FF80
03FFFF81FF80
03FFFFC1FF80
03FFFFC1FF80
07FEFFE1FF80
07FEFFE3FF00
07FE7FE3FF00
07FE7FF3FF00
07FC7FF3FF00
0FFC3FFBFE00
0FFC3FFFFE00
0FFC1FFFFE00
0FFC1FFFFE00
1FF81FFFFE00
1FF80FFFFC00
1FF80FFFFC00
1FF807FFFC00
1FF807FFFC00
3FF007FFFC00
3FF003FFF800
3FF003FFF800
3FF003FFF800
3FE001FFF800
7FE001FFF000
7FE000FFF000
7FE000FFF000
7FE000FFF000
7FC0007FF000
FFC0007FE000
ENDCHAR
STARTCHAR O
ENCODING 79
SWIDTH 720 0
DWIDTH 43 0
BBX 39 42 3 0
BITMAP
00007FF800
000FFFFFC0
007FFFFFF0
00FFFFFFFC
01FFFFFFFC
03FFFFFFFE
03FFFFFFFE
07FFFFFFFE
07FFC01FFE
0FFF000FFE
0FFE0007FE
0FFE0007FE
1FFC0007FE
1FFC0007FE
1FFC000FFE
1FF8000FFE
3FF8000FFE
3FF8000FFE
3FF8000FFC
3FF0000FFC
3FF0001FFC
7FF0001FFC
7FF0001FFC
7FF0001FF8
7FE0003FF8
7FE0003FF8
FFE0003FF8
FFE0003FF0
FFE0007FF0
FFC0007FF0
FFC0007FF0
FFC000FFE0
FFC000FFE0
FFE001FFE0
FFFC0FFFC0
FFFFFFFFC0
FFFFFFFF80
FFFFFFFF80
7FFFFFFF00
3FFFFFFE00
1FFFFFF800
03FFFFE000
ENDCHAR
STARTCHAR P
ENCODING 80
SWIDTH 649 0
DWIDTH 39 0
BBX 40 41 1 0
BITMAP
007FFFFFE0
007FFFFFF8
00FFFFFFFC
00FFFFFFFE
00FFFFFFFE
00FFFFFFFE
00FFFFFFFE
01FFC07FFF
01FFC00FFF
01FF8007FF
01FF8007FE
03FF8007FE
03FF8007FE
03FF800FFE
03FF000FFE
03FF000FFC
07FF000FFC
07FF001FFC
07FF003FFC
07FE01FFF8
07FFFFFFF8
0FFFFFFFF0
0FFFFFFFF0
0FFFFFFFE0
0FFFFFFFC0
1FFFFFFF80
1FFFFFFC00
1FFC000000
1FF8000000
1FF8000000
3FF8000000
3FF8000000
3FF8000000
3FF0000000
3FF0000000
7FF0000000
7FF0000000
7FE0000000
7FE0000000
7FE0000000
FFE0000000
ENDCHAR
STARTCHAR Q
ENCODING 81
SWIDTH 720 0
DWIDTH 43 0
BBX 39 49 3 -7
BITMAP
00007FF800
000FFFFFC0
007FFFFFF0
00FFFFFFFC
01FFFFFFFC
03FFFFFFFE
03FFFFFFFE
07FFFFFFFE
07FFC01FFE
0FFF000FFE
0FFE0007FE
0FFE0007FE
1FFC0007FE
1FFC0007FE
1FFC000FFE
1FF8000FFE
3FF8000FFE
3FF8000FFE
3FF8000FFC
3FF0000FFC
3FF0001FFC
7FF0001FFC
7FF0001FFC
7FF0001FF8
7FE0003FF8
7FE0003FF8
FFE0003FF8
FFE0003FF0
FFE4007FF0
FFC3FF7FF0
FFC3FF7FF0
FFC1FFFFE0
FFC1FFFFE0
FFE0FFFFE0
FFFCFFFFC0
FFFFFFFFC0
FFFFFFFF80
FFFFFFFF80
7FFFFFFF00
3FFFFFFE00
1FFFFFF800
03FFFFFC00
00000FFC00
00000FFE00
000007FE00
000007FF00
000003FF00
000003FF80
000003FF80
ENDCHAR
STARTCHAR R
ENCODING 82
SWIDTH 679 0
DWIDTH 41 0
BBX 40 41 1 0
BITMAP
007FFFFFE0
007FFFFFF8
00FFFFFFFE
00FFFFFFFE
00FFFFFFFF
00FFFFFFFF
00FFFFFFFF
01FFC03FFF
01FFC007FF
01FF8003FF
01FF8007FF
03FF8007FF
03FF8007FF
03FF8007FF
03FF0007FE
03FF000FFE
07FF000FFE
07FF001FFC
07FF007FFC
07FFFFFFFC
07FFFFFFF8
0FFFFFFFF0
0FFFFFFFF0
0FFFFFFFC0
0FFFFFFF80
1FFFFFFF00
1FFC03FF00
1FFC03FF00
1FF803FF00
1FF803FF00
3FF803FF80
3FF803FF80
3FF801FF80
3FF001FF80
3FF001FF80
7FF001FF80
7FF001FFC0
7FE001FFC0
7FE001FFC0
7FE000FFC0
FFE000FFC0
ENDCHAR
STARTCHAR S
ENCODING 83
SWIDTH 631 0
DWIDTH 38 0
BBX 37 42 1 0
BITMAP
00001FFC00
0007FFFFF8
001FFFFFF8
003FFFFFF8
007FFFFFF8
00FFFFFFF8
01FFFFFFF0
01FFFFFFF0
03FFE00070
03FF800000
03FF000000
07FF000000
07FF000000
07FF000000
07FF000000
07FF000000
0FFFF80000
0FFFFFF000
0FFFFFFE00
07FFFFFF80
07FFFFFF80
07FFFFFFC0
03FFFFFFC0
01FFFFFFC0
001FFFFFC0
00007FFFC0
000003FFC0
000001FFC0
000001FFC0
000001FFC0
000001FFC0
000001FF80
000003FF80
000007FF80
3FC03FFF00
3FFFFFFF00
7FFFFFFE00
7FFFFFFE00
7FFFFFFC00
7FFFFFF800
7FFFFFF000
FFFFFF8000
ENDCHAR
STARTCHAR T
ENCODING 84
SWIDTH 591 0
DWIDTH 35 0
BBX 35 41 5 0
BITMAP
7FFFFFFFE0
7FFFFFFFE0
7FFFFFFFE0
7FFFFFFFC0
FFFFFFFFC0
FFFFFFFFC0
FFFFFFFFC0
FFFFFFFFC0
001FFC0000
001FF80000
001FF80000
001FF80000
003FF80000
003FF80000
003FF00000
003FF00000
007FF00000
007FF00000
007FF00000
007FE00000
007FE00000
00FFE00000
00FFE00000
00FFC00000
00FFC00000
00FFC00000
01FFC00000
01FFC00000
01FF800000
01FF800000
03FF800000
03FF800000
03FF800000
03FF000000
03FF000000
07FF000000
07FF000000
07FE000000
07FE000000
07FE000000
0FFE000000
ENDCHAR
STARTCHAR U
ENCODING 85
SWIDTH 703 0
DWIDTH 42 0
BBX 41 41 3 0
BITMAP
03FF8003FF80
03FF8003FF00
03FF8007FF00
03FF0007FF00
03FF0007FE00
07FF0007FE00
07FF0007FE00
07FF000FFE00
07FE000FFE00
07FE000FFC00
0FFE000FFC00
0FFE000FFC00
0FFC001FFC00
0FFC001FFC00
0FFC001FF800
1FFC001FF800
1FFC003FF800
1FF8003FF800
1FF8003FF800
3FF8003FF000
3FF8003FF000
3FF8007FF000
3FF0007FF000
3FF0007FE000
7FF0007FE000
7FF0007FE000
7FE000FFE000
7FE000FFE000
7FE000FFC000
7FE000FFC000
7FE001FFC000
FFE001FFC000
FFF003FF8000
7FFFFFFF8000
7FFFFFFF0000
7FFFFFFF0000
7FFFFFFE0000
3FFFFFFE0000
3FFFFFFC0000
0FFFFFF00000
03FFFF800000
ENDCHAR
STARTCHAR V
ENCODING 86
SWIDTH 677 0
DWIDTH 41 0
BBX 39 41 6 0
BITMAP
FFE0000FFE
FFE0000FFE
FFE0001FFC
FFE0001FF8
7FE0003FF8
7FE0003FF0
7FE0007FF0
7FE0007FE0
7FE000FFE0
7FE000FFC0
7FE001FFC0
7FF001FF80
7FF003FF80
7FF003FF00
3FF007FF00
3FF007FE00
3FF00FFE00
3FF00FFC00
3FF01FFC00
3FF01FF800
3FF03FF800
3FF03FF000
3FF07FE000
3FF87FE000
1FF8FFC000
1FF8FFC000
1FF9FF8000
1FF9FF8000
1FFBFF0000
1FFBFF0000
1FFFFE0000
1FFFFE0000
1FFFFC0000
1FFFFC0000
0FFFF80000
0FFFF80000
0FFFF00000
0FFFF00000
0FFFE00000
0FFFE00000
0FFFC00000
ENDCHAR
STARTCHAR W
ENCODING 87
SWIDTH 1003 0
DWIDTH 60 0
BBX 58 41 7 0
BITMAP
FFC001FFC001FFC0
FFC003FFC003FF80
FFC003FFC003FF80
FFC003FFC003FF00
FFC007FFC007FF00
FFC007FFC007FE00
FFC00FFFC00FFE00
FFC00FFFC00FFC00
FFC01FFFC00FFC00
FFC01FFFC01FFC00
FFC03FFFC01FF800
FFC03FFFC03FF800
FFC07FFFC03FF000
FFC07FFFC03FF000
FFC07FFFC07FE000
FFC0FFBFC07FE000
FFC0FFBFC0FFC000
FFC1FF3FC0FFC000
FFC1FF3FC0FFC000
FFC3FE3FC1FF8000
FFC3FE3FE1FF8000
FFC7FC3FE3FF0000
FFC7FC3FE3FF0000
FFCFF83FE7FE0000
FFCFF83FE7FE0000
FFCFF03FE7FE0000
FFDFF03FEFFC0000
FFDFE03FEFFC0000
FFFFE03FFFF80000
FFFFC03FFFF80000
FFFFC03FFFF00000
FFFF803FFFF00000
FFFF803FFFE00000
FFFF803FFFE00000
FFFF003FFFE00000
FFFF003FFFC00000
FFFE003FFFC00000
FFFE001FFF800000
FFFC001FFF800000
FFFC001FFF000000
FFF8001FFF000000
ENDCHAR
STARTCHAR X
ENCODING 88
SWIDTH 705 0
DWIDTH 42 0
BBX 49 41 -2 0
BITMAP
007FF8000FFF80
003FF8000FFE00
003FFC001FFC00
001FFC003FFC00
001FFC007FF800
001FFE00FFF000
000FFE01FFE000
000FFF03FFC000
0007FF07FF8000
0007FF07FF0000
0003FF8FFE0000
0003FF9FFE0000
0001FFFFFC0000
0001FFFFF80000
0000FFFFF00000
0000FFFFE00000
00007FFFC00000
00007FFF800000
00003FFF000000
00003FFF000000
00003FFE000000
00007FFE000000
0000FFFF000000
0001FFFF000000
0003FFFF800000
0007FFFF800000
000FFFFF800000
000FFFFFC00000
001FFDFFC00000
003FF8FFE00000
007FF0FFE00000
00FFF0FFF00000
01FFE07FF00000
03FFC07FF80000
07FF803FF80000
07FF003FFC0000
0FFE001FFC0000
1FFC001FFE0000
3FF8001FFE0000
7FF8000FFE0000
FFF0000FFF0000
ENDCHAR
STARTCHAR Y
ENCODING 89
SWIDTH 654 0
DWIDTH 39 0
BBX 38 41 6 0
BITMAP
FFC0001FFC
FFE0003FF8
FFE0003FF0
7FE0007FF0
7FE000FFE0
7FF001FFC0
3FF001FF80
3FF003FF80
3FF807FF00
1FF807FE00
1FF80FFC00
1FF81FFC00
0FFC3FF800
0FFC3FF000
0FFC7FE000
0FFCFFE000
07FEFFC000
07FFFF8000
07FFFF8000
03FFFF0000
03FFFE0000
03FFFC0000
01FFFC0000
01FFF80000
01FFF00000
00FFE00000
00FFE00000
00FFC00000
00FFC00000
01FFC00000
01FFC00000
01FF800000
01FF800000
03FF800000
03FF800000
03FF800000
03FF000000
03FF000000
07FF000000
07FF000000
07FE000000
ENDCHAR
STARTCHAR Z
ENCODING 90
SWIDTH 628 0
DWIDTH 38 0
BBX 41 41 -1 0
BITMAP
003FFFFFFF80
007FFFFFFF80
007FFFFFFF80
007FFFFFFF00
007FFFFFFF00
00FFFFFFFF00
00FFFFFFFF00
00FFFFFFFE00
0000007FFC00
000000FFF800
000001FFF000
000003FFE000
000007FFE000
00000FFFC000
00001FFF8000
00001FFF0000
00003FFE0000
00007FFC0000
0000FFF80000
0001FFF00000
0003FFE00000
0007FFC00000
000FFF800000
001FFF000000
003FFE000000
007FFC000000
00FFF8000000
01FFF8000000
03FFF0000000
03FFE0000000
07FFC0000000
0FFF80000000
1FFF00000000
3FFFFFFFC000
3FFFFFFFC000
7FFFFFFFC000
7FFFFFFF8000
7FFFFFFF8000
7FFFFFFF8000
7FFFFFFF8000
FFFFFFFF8000
ENDCHAR
STARTCHAR bracketleft
ENCODING 91
SWIDTH 384 0
DWIDTH 23 0
BBX 27 54 0 -9
BITMAP
001FFFE0
001FFFE0
001FFFC0
003FFFC0
003FFFC0
003FFFC0
003FC000
003FC000
007FC000
007FC000
007F8000
007F8000
007F8000
00FF8000
00FF8000
00FF0000
00FF0000
01FF0000
01FF0000
01FF0000
01FE0000
01FE0000
03FE0000
03FE0000
03FC0000
03FC0000
03FC0000
07FC0000
07FC0000
07F80000
07F80000
07F80000
0FF80000
0FF80000
0FF00000
0FF00000
1FF00000
1FF00000
1FE00000
1FE00000
1FE00000
3FE00000
3FE00000
3FC00000
3FC00000
3FC00000
7FC00000
7FC00000
7FFF8000
7FFF0000
FFFF0000
FFFF0000
FFFF0000
FFFF0000
ENDCHAR
STARTCHAR backslash
ENCODING 92
SWIDTH 412 0
DWIDTH 25 0
BBX 16 48 6 -3
BITMAP
FF00
FF00
FF00
7F80
7F80
7F80
7F80
7F80
7F80
3FC0
3FC0
3FC0
3FC0
3FC0
3FC0
3FE0
1FE0
1FE0
1FE0
1FE0
1FE0
1FE0
0FF0
0FF0
0FF0
0FF0
0FF0
0FF0
07F8
07F8
07F8
07F8
07F8
07F8
07F8
03FC
03FC
03FC
03FC
03FC
03FC
01FE
01FE
01FE
01FE
01FE
01FE
01FF
ENDCHAR
STARTCHAR bracketright
ENCODING 93
SWIDTH 384 0
DWIDTH 23 0
BBX 27 54 -3 -9
BITMAP
001FFFE0
001FFFE0
001FFFE0
001FFFC0
001FFFC0
003FFFC0
00007FC0
00007FC0
00007F80
00007F80
00007F80
0000FF80
0000FF80
0000FF00
0000FF00
0000FF00
0001FF00
0001FF00
0001FE00
0001FE00
0003FE00
0003FE00
0003FC00
0003FC00
0003FC00
0007FC00
0007FC00
0007F800
0007F800
0007F800
000FF800
000FF800
000FF000
000FF000
001FF000
001FF000
001FF000
001FE000
001FE000
003FE000
003FE000
003FC000
003FC000
003FC000
007FC000
007FC000
007F8000
007F8000
7FFF8000
7FFF8000
7FFF8000
7FFF0000
FFFF0000
FFFF0000
ENDCHAR
STARTCHAR asciicircum
ENCODING 94
SWIDTH 440 0
DWIDTH 26 0
BBX 24 19 4 26
BITMAP
000FE0
001FF0
001FF0
003FF0
007FF0
007FF8
00FFF8
01FDF8
01F9F8
03F9FC
07F0FC
07E0FC
0FE0FC
1FC0FE
1F807E
3F807E
7F007E
7F007F
FE007F
ENDCHAR
STARTCHAR underscore
ENCODING 95
SWIDTH 388 0
DWIDTH 23 0
BBX 24 7 -4 -11
BITMAP
7FFFFF
7FFFFF
7FFFFF
FFFFFF
FFFFFE
FFFFFE
FFFFFE
ENDCHAR
STARTCHAR grave
ENCODING 96
SWIDTH 248 0
DWIDTH 15 0
BBX 13 8 6 35
BITMAP
FF80
7FC0
3FC0
1FE0
1FE0
0FF0
07F0
03F8
ENDCHAR
STARTCHAR a
ENCODING 97
SWIDTH 589 0
DWIDTH 35 0
BBX 33 31 2 0
BITMAP
007FC0FF80
01FFF8FF80
03FFFDFF80
07FFFDFF80
0FFFFFFF00
0FFFFFFF00
1FFFFFFF00
1FFFFFFF00
3FF80FFF00
3FF007FE00
3FF007FE00
3FE007FE00
7FE007FE00
7FE007FC00
7FE007FC00
7FC00FFC00
FFC00FFC00
FFC00FFC00
FFC00FF800
FFC01FF800
FF801FF800
FF801FF800
FFC03FF800
FFE0FFF000
FFFFFFF000
FFFFFFF000
FFFFFFF000
FFFFBFE000
7FFFBFE000
7FFF3FE000
1FFC3FE000
ENDCHAR
STARTCHAR b
ENCODING 98
SWIDTH 598 0
DWIDTH 36 0
BBX 33 45 1 0
BITMAP
007FE00000
007FE00000
007FE00000
007FC00000
00FFC00000
00FFC00000
00FFC00000
00FF800000
00FF800000
01FF800000
01FF800000
01FF800000
01FF000000
01FF000000
03FF0FF800
03FF3FFE00
03FF7FFF00
03FEFFFF80
07FFFFFF80
07FFFFFF80
07FFFFFF80
07FFFFFF80
07FF01FF80
0FFE00FF80
0FFC00FF80
0FFC00FF80
0FFC01FF80
0FF801FF80
1FF801FF80
1FF801FF80
1FF801FF00
1FF003FF00
3FF003FF00
3FF003FF00
3FF003FE00
3FF007FE00
3FF007FE00
7FFC1FFC00
7FFFFFFC00
7FFFFFFC00
7FFFFFF800
7FDFFFF000
FFDFFFF000
FF8FFFE000
FF83FF8000
ENDCHAR
STARTCHAR c
ENCODING 99
SWIDTH 473 0
DWIDTH 28 0
BBX 27 31 2 0
BITMAP
001FFF80
00FFFFE0
01FFFFE0
07FFFFC0
07FFFFC0
0FFFFFC0
1FFFFFC0
1FFE0040
1FF80000
3FF00000
3FF00000
3FF00000
7FE00000
7FE00000
7FE00000
7FE00000
7FC00000
FFC00000
FFC00000
FFC00000
FFC00000
FFC00000
FFC00000
FFE00000
FFFFFC00
FFFFFC00
FFFFFC00
7FFFFC00
7FFFF800
3FFFF800
0FFFF800
ENDCHAR
STARTCHAR d
ENCODING 100
SWIDTH 598 0
DWIDTH 36 0
BBX 36 45 2 0
BITMAP
0000001FF0
0000003FF0
0000003FF0
0000003FF0
0000003FE0
0000003FE0
0000007FE0
0000007FE0
0000007FE0
0000007FC0
000000FFC0
000000FFC0
000000FFC0
000000FFC0
007FE0FF80
01FFF9FF80
03FFFDFF80
07FFFDFF80
0FFFFFFF00
0FFFFFFF00
1FFFFFFF00
1FFFFFFF00
1FF807FF00
3FF007FE00
3FF007FE00
3FE007FE00
7FE007FE00
7FE007FE00
7FE007FC00
7FC00FFC00
7FC00FFC00
FFC00FFC00
FFC00FF800
FFC01FF800
FFC01FF800
FFC01FF800
FFC03FF800
FFE0FFF000
FFFFFFF000
FFFFFFF000
FFFFFFF000
FFFFFFF000
7FFFBFE000
3FFF3FE000
1FFC3FE000
ENDCHAR
STARTCHAR e
ENCODING 101
SWIDTH 568 0
DWIDTH 34 0
BBX 30 31 2 0
BITMAP
000FFF80
007FFFF0
01FFFFF8
03FFFFFC
07FFFFFC
0FFFFFFC
0FFFFFFC
1FF80FFC
1FF807FC
1FF007FC
3FF007FC
3FE007FC
3FE007FC
7FFFFFF8
7FFFFFF8
7FFFFFF8
7FFFFFF8
7FFFFFF0
FFC00000
FFC00000
FFC00000
FF800000
FFC00000
FFC00000
FFFFFFC0
FFFFFFC0
FFFFFFC0
7FFFFFC0
7FFFFF80
3FFFFF80
07FFFF80
ENDCHAR
STARTCHAR f
ENCODING 102
SWIDTH 431 0
DWIDTH 26 0
BBX 35 57 -4 -12
BITMAP
00000000E0
000007FFC0
00001FFFC0
00003FFFC0
00003FFFC0
00007FFFC0
00007FFF80
0000FFE000
0000FFC000
0000FF8000
0001FF8000
0001FF8000
0001FF8000
0001FF0000
007FFFFF00
007FFFFE00
00FFFFFE00
00FFFFFE00
00FFFFFE00
00FFFFFE00
01FFFFFC00
01FFFFFC00
0007FE0000
0007FC0000
000FFC0000
000FFC0000
000FFC0000
000FF80000
000FF80000
001FF80000
001FF80000
001FF80000
001FF00000
003FF00000
003FF00000
003FF00000
003FF00000
003FE00000
007FE00000
007FE00000
007FE00000
007FE00000
007FC00000
00FFC00000
00FFC00000
00FFC00000
00FF800000
01FF800000
01FF800000
01FF800000
3FFF000000
3FFF000000
7FFE000000
7FFE000000
7FFC000000
7FF8000000
FFC0000000
ENDCHAR
STARTCHAR g
ENCODING 103
SWIDTH 596 0
DWIDTH 36 0
BBX 35 43 0 -12
BITMAP
000FF83FE0
003FFE3FE0
007FFF7FE0
00FFFF7FE0
01FFFFFFC0
01FFFFFFC0
03FFFFFFC0
03FFFFFFC0
07FF03FFC0
07FE01FF80
07FC01FF80
0FFC01FF80
0FFC01FF80
0FF801FF00
1FF803FF00
1FF803FF00
1FF803FF00
1FF803FF00
1FF003FE00
1FF007FE00
3FF007FE00
3FF00FFE00
3FF81FFE00
3FFFFFFC00
3FFFFFFC00
3FFFFFFC00
1FFFFFFC00
1FFFEFF800
1FFFCFF800
0FFF9FF800
01FC1FF800
00001FF000
00001FF000
00003FF000
00007FF000
0000FFE000
7FFFFFE000
7FFFFFC000
7FFFFFC000
7FFFFF8000
FFFFFF0000
FFFFFC0000
FFFFE00000
ENDCHAR
STARTCHAR h
ENCODING 104
SWIDTH 603 0
DWIDTH 36 0
BBX 33 45 1 0
BITMAP
007FE00000
007FE00000
007FC00000
007FC00000
00FFC00000
00FFC00000
00FFC00000
00FF800000
01FF800000
01FF800000
01FF800000
01FF000000
01FF000000
03FF000000
03FF0FF800
03FF3FFE00
03FE7FFF00
03FEFFFF80
07FFFFFF80
07FFFFFF80
07FFFFFF80
07FFFFFF80
07FF01FF80
0FFE01FF80
0FFC01FF80
0FFC01FF80
0FF801FF00
1FF803FF00
1FF803FF00
1FF803FF00
1FF803FF00
1FF003FE00
3FF007FE00
3FF007FE00
3FF007FE00
3FE007FC00
3FE007FC00
7FE00FFC00
7FE00FFC00
7FE00FFC00
7FC00FF800
7FC00FF800
FFC01FF800
FFC01FF800
FF801FF800
ENDCHAR
STARTCHAR i
ENCODING 105
SWIDTH 289 0
DWIDTH 17 0
BBX 19 45 1 0
BITMAP
007FE0
007FE0
007FE0
00FFC0
00FFC0
00FFC0
00FFC0
00FFC0
000000
000000
000000
000000
000000
000000
03FF00
03FF00
03FF00
03FE00
07FE00
07FE00
07FE00
07FE00
07FC00
0FFC00
0FFC00
0FFC00
0FFC00
0FF800
1FF800
1FF800
1FF800
1FF000
3FF000
3FF000
3FF000
3FF000
3FE000
7FE000
7FE000
7FE000
7FE000
7FC000
FFC000
FFC000
FFC000
ENDCHAR
STARTCHAR j
ENCODING 106
SWIDTH 296 0
DWIDTH 18 0
BBX 26 57 -6 -12
BITMAP
00007FC0
0000FFC0
0000FFC0
0000FFC0
0000FFC0
0001FF80
0001FF80
0001FF80
00000000
00000000
00000000
00000000
00000000
00000000
0003FE00
0007FE00
0007FE00
0007FE00
0007FE00
0007FC00
000FFC00
000FFC00
000FFC00
000FFC00
001FF800
001FF800
001FF800
001FF800
001FF000
003FF000
003FF000
003FF000
003FF000
003FE000
007FE000
007FE000
007FE000
007FE000
00FFC000
00FFC000
00FFC000
00FFC000
00FFC000
01FF8000
01FF8000
01FF8000
01FF8000
01FF0000
03FF0000
03FF0000
7FFF0000
7FFE0000
7FFE0000
FFFC0000
FFF80000
FFF00000
FF800000
ENDCHAR
STARTCHAR k
ENCODING 107
SWIDTH 595 0
DWIDTH 36 0
BBX 37 45 1 0
BITMAP
007FE00000
007FE00000
007FC00000
007FC00000
00FFC00000
00FFC00000
00FFC00000
00FF800000
01FF800000
01FF800000
01FF800000
01FF800000
01FF000000
03FF000000
03FF003FF8
03FF007FF0
03FE00FFE0
03FE01FFC0
07FE03FF80
07FE07FF00
07FE07FE00
07FC0FFC00
07FC1FF800
0FFC3FF000
0FFC7FE000
0FFCFFC000
0FFFFF8000
0FFFFF0000
1FFFFE0000
1FFFFE0000
1FFFFE0000
1FFFFF0000
3FFFFF0000
3FF3FF8000
3FF1FF8000
3FE1FFC000
3FE0FFC000
7FE0FFE000
7FE07FE000
7FE07FF000
7FC03FF000
7FC03FF800
FFC01FF800
FFC01FFC00
FFC00FFE00
ENDCHAR
STARTCHAR l
ENCODING 108
SWIDTH 286 0
DWIDTH 17 0
BBX 19 45 1 0
BITMAP
007FE0
007FE0
007FE0
007FC0
00FFC0
00FFC0
00FFC0
00FFC0
01FF80
01FF80
01FF80
01FF80
01FF00
03FF00
03FF00
03FF00
03FF00
03FE00
07FE00
07FE00
07FE00
07FE00
07FC00
0FFC00
0FFC00
0FFC00
0FF800
0FF800
1FF800
1FF800
1FF800
1FF000
3FF000
3FF000
3FF000
3FF000
3FE000
7FE000
7FE000
7FE000
7FE000
7FC000
FFC000
FFC000
FFC000
ENDCHAR
STARTCHAR m
ENCODING 109
SWIDTH 888 0
DWIDTH 53 0
BBX 50 31 1 0
BITMAP
03FE0FF803FE00
03FE3FFE0FFF00
03FE7FFF3FFF80
03FEFFFF7FFFC0
07FFFFFFFFFFC0
07FFFFFFFFFFC0
07FFFFFFFFFFC0
07FFFFFFFFFFC0
07FF03FFC0FFC0
0FFE03FF80FFC0
0FFC03FF00FFC0
0FFC03FF00FFC0
0FF803FE00FF80
1FF803FE00FF80
1FF807FE01FF80
1FF807FE01FF80
1FF807FE01FF80
1FF007FC01FF00
3FF00FFC03FF00
3FF00FFC03FF00
3FF00FFC03FF00
3FE00FF803FE00
3FE00FF803FE00
7FE01FF807FE00
7FE01FF807FE00
7FE01FF807FE00
7FC01FF007FC00
7FC01FF007FC00
FFC03FF00FFC00
FFC03FF00FFC00
FF803FE00FFC00
ENDCHAR
STARTCHAR n
ENCODING 110
SWIDTH 603 0
DWIDTH 36 0
BBX 33 31 1 0
BITMAP
03FE07F800
03FE3FFE00
03FE7FFF00
03FEFFFF80
07FFFFFF80
07FFFFFF80
07FFFFFF80
07FFFFFF80
07FF01FF80
0FFE01FF80
0FFC01FF80
0FFC01FF80
0FF801FF00
1FF803FF00
1FF803FF00
1FF803FF00
1FF803FF00
1FF003FE00
3FF007FE00
3FF007FE00
3FF007FE00
3FE007FC00
3FE007FC00
7FE00FFC00
7FE00FFC00
7FE00FFC00
7FC00FF800
7FC00FF800
FFC01FF800
FFC01FF800
FF801FF800
ENDCHAR
STARTCHAR o
ENCODING 111
SWIDTH 573 0
DWIDTH 34 0
BBX 32 31 1 0
BITMAP
001FFFC0
00FFFFF8
01FFFFFE
03FFFFFE
07FFFFFF
0FFFFFFF
0FFFFFFF
1FFC07FF
1FF803FF
1FF803FF
1FF003FF
3FF003FF
3FF003FF
3FF003FE
3FE003FE
7FE007FE
7FE007FE
7FE007FE
7FE007FC
7FC007FC
7FC00FFC
FFC00FFC
FFC00FF8
FFC01FF8
FFFFFFF8
FFFFFFF0
FFFFFFF0
7FFFFFE0
7FFFFFC0
3FFFFF80
0FFFFE00
ENDCHAR
STARTCHAR p
ENCODING 112
SWIDTH 598 0
DWIDTH 36 0
BBX 37 43 -2 -12
BITMAP
007FE1FF00
007FC7FFC0
007FCFFFE0
007FDFFFF0
007FFFFFF0
00FFFFFFF0
00FFFFFFF0
00FFFFFFF8
00FFE03FF0
00FFC01FF0
01FF801FF0
01FF801FF0
01FF801FF0
01FF003FF0
03FF003FF0
03FF003FF0
03FF003FE0
03FE007FE0
03FE007FE0
07FE007FE0
07FE007FC0
07FE00FFC0
07FE00FFC0
07FF83FF80
0FFFFFFF80
0FFFFFFF80
0FFFFFFF00
0FFFFFFE00
1FFBFFFE00
1FF9FFFC00
1FF87FF000
1FF0000000
1FF0000000
3FF0000000
3FF0000000
3FF0000000
3FE0000000
3FE0000000
7FE0000000
7FE0000000
7FE0000000
7FC0000000
FFC0000000
ENDCHAR
STARTCHAR q
ENCODING 113
SWIDTH 585 0
DWIDTH 35 0
BBX 33 43 1 -12
BITMAP
003FE0FF80
00FFF8FF80
01FFFCFF80
03FFFDFF80
07FFFFFF80
07FFFFFF00
0FFFFFFF00
0FFFFFFF00
1FFC0FFF00
1FF807FF00
1FF007FE00
3FF007FE00
3FF007FE00
3FF007FE00
3FE007FC00
7FE007FC00
7FE00FFC00
7FE00FFC00
7FE00FFC00
7FC00FF800
7FC01FF800
7FC01FF800
FFE03FF800
FFF9FFF800
FFFFFFF000
7FFFFFF000
7FFFFFF000
7FFFFFF000
7FFFBFE000
3FFF3FE000
1FFC7FE000
00007FE000
00007FE000
00007FC000
00007FC000
0000FFC000
0000FFC000
0000FFC000
0000FF8000
0001FF8000
0001FF8000
0001FF8000
0001FF0000
ENDCHAR
STARTCHAR r
ENCODING 114
SWIDTH 416 0
DWIDTH 25 0
BBX 26 31 1 0
BITMAP
03FE07C0
03FE1FC0
03FE3FC0
03FE7F80
07FEFF80
07FFFF80
07FFFF80
07FFFF80
07FFFF00
0FFFC000
0FFF0000
0FFE0000
0FFC0000
1FFC0000
1FF80000
1FF80000
1FF80000
1FF00000
3FF00000
3FF00000
3FF00000
3FE00000
3FE00000
7FE00000
7FE00000
7FE00000
7FC00000
7FC00000
FFC00000
FFC00000
FFC00000
ENDCHAR
STARTCHAR s
ENCODING 115
SWIDTH 519 0
DWIDTH 31 0
BBX 29 31 1 0
BITMAP
003FFFE0
00FFFFF8
03FFFFF8
07FFFFF8
07FFFFF0
0FFFFFF0
0FFFFFF0
0FF80000
1FF00000
1FF00000
1FF00000
1FFC0000
1FFFF000
1FFFFF80
1FFFFFC0
1FFFFFE0
1FFFFFE0
0FFFFFE0
00FFFFE0
0001FFE0
00003FE0
00007FC0
00007FC0
0000FFC0
7E0FFFC0
7FFFFF80
FFFFFF80
FFFFFF00
FFFFFF00
FFFFFC00
FFFFF800
ENDCHAR
STARTCHAR t
ENCODING 116
SWIDTH 422 0
DWIDTH 25 0
BBX 23 39 3 0
BITMAP
007FE0
00FFC0
00FFC0
00FFC0
00FFC0
01FF80
01FF80
01FF80
7FFFFE
7FFFFE
7FFFFE
7FFFFE
FFFFFE
FFFFFC
FFFFFC
FFFFFC
07FE00
07FE00
07FE00
07FC00
0FFC00
0FFC00
0FFC00
0FFC00
1FF800
1FF800
1FF800
1FF800
1FF000
3FF000
3FF000
3FF800
3FFFE0
3FFFE0
3FFFC0
3FFFC0
1FFFC0
0FFFC0
01FFC0
ENDCHAR
STARTCHAR u
ENCODING 117
SWIDTH 591 0
DWIDTH 35 0
BBX 33 31 2 0
BITMAP
07FC00FF80
0FFC01FF80
0FFC01FF80
0FFC01FF80
0FFC01FF00
0FF801FF00
1FF803FF00
1FF803FF00
1FF803FF00
1FF003FE00
1FF003FE00
3FF007FE00
3FF007FE00
3FF007FE00
3FE007FC00
3FE00FFC00
7FE00FFC00
7FE00FFC00
7FE00FFC00
7FC00FF800
FFC01FF800
FFC01FF800
FFC03FF800
FFE1FFF000
FFFFFFF000
FFFFFFF000
FFFFFFF000
FFFFFFF000
7FFFBFE000
3FFE3FE000
1FFC3FE000
ENDCHAR
STARTCHAR v
ENCODING 118
SWIDTH 561 0
DWIDTH 34 0
BBX 32 31 4 0
BITMAP
FFC003FF
FFC003FF
7FC007FE
7FC007FE
7FC00FFC
7FC00FFC
7FC01FF8
7FC01FF8
7FC03FF0
7FC03FF0
7FC03FE0
7FE07FE0
3FE07FC0
3FE0FF80
3FE0FF80
3FE1FF00
3FE1FF00
3FE3FE00
3FE3FE00
3FE7FC00
3FE7FC00
3FEFF800
3FFFF800
1FFFF000
1FFFF000
1FFFE000
1FFFE000
1FFFC000
1FFFC000
1FFF8000
1FFF8000
ENDCHAR
STARTCHAR w
ENCODING 119
SWIDTH 855 0
DWIDTH 51 0
BBX 49 31 5 0
BITMAP
FF800FF001FF80
FF801FF801FF00
FF801FF803FF00
FF803FF803FE00
FF803FF803FE00
FF807FF807FC00
FF807FF807FC00
FF80FFF80FF800
FF80FFF80FF800
FF81FFF81FF800
FF81FFF81FF000
FF83FFF81FF000
FF83FFF83FE000
FF87FFF83FE000
FF87FFF87FC000
FF8FFBF87FC000
FF8FF3F8FF8000
FF9FF3F8FF8000
FF9FE3FCFF0000
7F9FE3FDFF0000
7FBFC3FDFE0000
7FBFC3FFFE0000
7FFF83FFFC0000
7FFF83FFFC0000
7FFF03FFF80000
7FFF03FFF80000
7FFE03FFF00000
7FFE03FFF00000
7FFC03FFF00000
7FFC03FFE00000
7FF801FFE00000
ENDCHAR
STARTCHAR x
ENCODING 120
SWIDTH 589 0
DWIDTH 35 0
BBX 39 31 -2 0
BITMAP
01FF8007FE
01FF800FFC
00FFC01FFC
00FFC01FF8
007FE03FF0
007FE07FE0
003FF0FFC0
003FF1FF80
001FFBFF00
001FFFFE00
000FFFFE00
0007FFFC00
0007FFF800
0003FFF000
0003FFE000
0003FFC000
0007FFC000
000FFFE000
001FFFE000
003FFFF000
007FFFF000
00FFDFF800
00FFCFF800
01FF8FFC00
03FF0FFC00
07FE07FE00
0FFC07FE00
1FF803FF00
3FF803FF00
7FF001FF80
FFE001FFC0
ENDCHAR
STARTCHAR y
ENCODING 121
SWIDTH 606 0
DWIDTH 36 0
BBX 34 43 1 -12
BITMAP
03FF007FC0
03FF007FC0
03FF00FFC0
03FE00FFC0
07FE00FFC0
07FE00FF80
07FE01FF80
07FE01FF80
07FC01FF80
0FFC01FF80
0FFC01FF00
0FFC03FF00
0FF803FF00
0FF803FF00
1FF803FE00
1FF803FE00
1FF807FE00
1FF007FE00
1FF007FE00
3FF007FC00
3FF00FFC00
3FF00FFC00
3FF03FFC00
3FFFFFFC00
3FFFFFF800
3FFFFFF800
3FFFFFF800
3FFFDFF800
1FFF9FF000
0FFF1FF000
03F83FF000
00003FF000
00003FE000
00007FE000
00007FE000
0001FFC000
7FFFFFC000
7FFFFF8000
7FFFFF8000
FFFFFF0000
FFFFFE0000
FFFFF80000
FFFFE00000
ENDCHAR
STARTCHAR z
ENCODING 122
SWIDTH 535 0
DWIDTH 32 0
BBX 34 31 -1 0
BITMAP
00FFFFFFC0
01FFFFFF80
01FFFFFF80
01FFFFFF80
01FFFFFF80
03FFFFFF80
03FFFFFF00
03FFFFFF00
00003FFE00
00007FFC00
0000FFF800
0001FFF000
0003FFE000
0007FFC000
000FFF0000
001FFE0000
003FFC0000
007FF80000
00FFF00000
01FFE00000
03FFC00000
07FF800000
1FFF000000
3FFE000000
3FFFFFF800
7FFFFFF000
7FFFFFF000
7FFFFFF000
7FFFFFF000
7FFFFFF000
FFFFFFE000
ENDCHAR
STARTCHAR braceleft
ENCODING 123
SWIDTH 365 0
DWIDTH 22 0
BBX 25 54 2 -9
BITMAP
00001F80
0000FF00
0001FC00
0007F800
000FF000
001FF000
001FE000
003FC000
003FC000
007FC000
007F8000
007F8000
00FF8000
00FF8000
00FF0000
00FF0000
00FF0000
01FF0000
01FF0000
01FE0000
01FE0000
03FE0000
03FC0000
07F80000
1FF00000
FFE00000
FF800000
FE000000
FFC00000
7FE00000
1FE00000
1FF00000
0FF00000
0FF00000
0FF00000
0FF00000
1FF00000
1FF00000
1FE00000
1FE00000
3FE00000
3FE00000
3FE00000
3FC00000
3FC00000
3FC00000
3FC00000
3FC00000
1FE00000
1FE00000
0FE00000
0FF00000
07F80000
03FC0000
ENDCHAR
STARTCHAR bar
ENCODING 124
SWIDTH 301 0
DWIDTH 18 0
BBX 19 55 0 -10
BITMAP
001FE0
001FE0
001FE0
001FE0
003FE0
003FC0
003FC0
003FC0
007FC0
007F80
007F80
007F80
007F80
00FF80
00FF00
00FF00
00FF00
00FF00
01FF00
01FE00
01FE00
01FE00
03FE00
03FC00
03FC00
03FC00
03FC00
07FC00
07F800
07F800
07F800
07F800
0FF800
0FF000
0FF000
0FF000
1FF000
1FE000
1FE000
1FE000
1FE000
3FE000
3FC000
3FC000
3FC000
3FC000
7FC000
7F8000
7F8000
7F8000
7F8000
FF0000
FF0000
FF0000
FF0000
ENDCHAR
STARTCHAR braceright
ENCODING 125
SWIDTH 365 0
DWIDTH 22 0
BBX 25 54 -4 -9
BITMAP
001FC000
000FE000
0007F000
0007F800
0003FC00
0003FC00
0003FC00
0001FE00
0001FE00
0001FE00
0001FE00
0003FE00
0003FE00
0003FC00
0003FC00
0003FC00
0007FC00
0007FC00
0007F800
0007F800
0007F800
0007F800
0007F800
0007FC00
0003FE00
0001FF80
0000FF80
00003F80
0001FF80
0007FE00
000FF800
001FF000
001FE000
003FC000
003FC000
007FC000
007FC000
007F8000
007F8000
00FF8000
00FF8000
00FF0000
00FF0000
00FF0000
01FF0000
01FE0000
01FE0000
03FC0000
07FC0000
07F80000
0FF00000
1FE00000
3F800000
FE000000
ENDCHAR
STARTCHAR asciitilde
ENCODING 126
SWIDTH 499 0
DWIDTH 30 0
BBX 25 9 3 14
BITMAP
00000F80
0FE00F80
3FFF1F80
7FFFFF00
7FFFFF00
7FFFFF00
FFFFFE00
F81FFC00
F800F000
ENDCHAR
STARTCHAR uni00A0
ENCODING 160
SWIDTH 258 0
DWIDTH 15 0
BBX 1 1 0 0
BITMAP
00
ENDCHAR
STARTCHAR exclamdown
ENCODING 161
SWIDTH 314 0
DWIDTH 19 0
BBX 19 42 -1 -11
BITMAP
007FE0
007FE0
007FE0
00FFE0
00FFC0
00FFC0
00FFC0
00FFC0
01FFC0
000000
000000
000000
000000
000000
00FE00
01FE00
01FE00
01FC00
03FC00
03FC00
03FC00
07FC00
07FC00
07FC00
0FFC00
0FF800
0FF800
0FF800
1FF800
1FF800
1FF800
3FF800
3FF000
3FF000
3FF000
7FF000
7FF000
7FF000
7FF000
FFE000
FFE000
FFE000
ENDCHAR
STARTCHAR cent
ENCODING 162
SWIDTH 468 0
DWIDTH 28 0
BBX 27 42 2 0
BITMAP
0001FE00
0001FC00
0001FC00
0001FC00
0001FC00
001FFF80
00FFFFE0
01FFFFC0
03FFFFC0
07FFFFC0
07FFFFC0
0FFFFF80
0FFFFF80
1FFFF000
1FFFF000
1FFFE000
3FFFE000
3FFFE000
3FFFE000
3FFFC000
7FFFC000
7FFFC000
7FFFC000
7FFFC000
7FFF8000
7FFF8000
FFFF8000
FFFF8000
FFFF8000
FFFF0000
FFFFFC00
FFFFF800
7FFFF800
7FFFF800
3FFFF800
3FFFF800
0FFFF000
03FFC000
01FC0000
01FC0000
01FC0000
01FC0000
ENDCHAR
STARTCHAR sterling
ENCODING 163
SWIDTH 611 0
DWIDTH 37 0
BBX 39 42 0 0
BITMAP
0000007FE0
00000FFFFE
00003FFFFE
0000FFFFFC
0001FFFFFC
0003FFFFFC
0007FFFFFC
0007FFFFFC
000FFFE038
000FFE0000
001FFC0000
001FFC0000
001FF80000
003FF80000
003FF80000
003FF00000
003FF00000
07FFFFFE00
07FFFFFE00
0FFFFFFE00
0FFFFFFE00
0FFFFFFC00
0FFFFFFC00
0FFFFFFC00
10FFC00000
00FFC00000
01FFC00000
01FFC00000
01FF800000
01FF800000
01FF800000
03FF800000
03FF800000
03FF000000
7FFFFFFF80
7FFFFFFF00
7FFFFFFF00
7FFFFFFF00
FFFFFFFF00
FFFFFFFE00
FFFFFFFE00
FFFFFFFE00
ENDCHAR
STARTCHAR currency
ENCODING 164
SWIDTH 680 0
DWIDTH 41 0
BBX 42 41 0 0
BITMAP
000C00000600
001C00000F00
007E00001F80
00FF00003F80
01FFBFFC7FC0
00FFFFFFFFC0
007FFFFFFF00
007FFFFFFE00
003FFFFFFC00
003FFFFFF800
003FFFFFF800
007FFCFFF800
007FE01FF800
007FC01FF800
00FFC01FF800
00FFC01FF800
00FF801FF800
00FF801FF000
01FF801FF000
01FF803FF000
01FF803FF000
01FF003FF000
03FF003FE000
03FF003FE000
03FF007FE000
03FF007FE000
03FF007FC000
03FF00FFC000
03FF01FFC000
03FFFFFF8000
03FFFFFF8000
03FFFFFF0000
0FFFFFFF8000
1FFFFFFFC000
3FFFFFFFE000
FFFFFFFFE000
7FC0701FF000
3F80001FE000
3F00000FC000
1C0000070000
080000020000
ENDCHAR
STARTCHAR yen
ENCODING 165
SWIDTH 639 0
DWIDTH 38 0
BBX 41 41 2 0
BITMAP
07FE0003FF80
07FE0007FE00
07FE000FFE00
03FF000FFC00
03FF001FF800
03FF001FF800
01FF003FF000
01FF807FE000
01FF807FC000
01FF80FFC000
00FF81FF8000
00FF81FF0000
00FFC3FF0000
007FC7FE0000
1FFFFFFFF000
1FFFFFFFE000
1FFFFFFFE000
1FFFFFFFE000
3FFFFFFFE000
003FFFE00000
003FFFC00000
001FFF800000
001FFF800000
7FFFFFFFC000
7FFFFFFFC000
7FFFFFFF8000
7FFFFFFF8000
FFFFFFFF8000
001FFC000000
001FFC000000
001FF8000000
001FF8000000
003FF8000000
003FF8000000
003FF0000000
003FF0000000
003FF0000000
007FF0000000
007FF0000000
007FE0000000
007FE0000000
ENDCHAR
STARTCHAR brokenbar
ENCODING 166
SWIDTH 301 0
DWIDTH 18 0
BBX 20 55 0 -10
BITMAP
001FF0
001FE0
001FE0
001FE0
001FE0
003FE0
003FC0
003FC0
003FC0
003FC0
007FC0
007F80
007F80
007F80
007F80
00FF00
00FF00
00FF00
00FF00
01FF00
01FE00
01FE00
000000
000000
000000
000000
000000
000000
000000
000000
000000
000000
000000
0FF800
0FF000
0FF000
0FF000
0FF000
1FF000
1FE000
1FE000
1FE000
1FE000
3FC000
3FC000
3FC000
3FC000
7FC000
7F8000
7F8000
7F8000
7F8000
FF8000
FF0000
FF0000
ENDCHAR
STARTCHAR section
ENCODING 167
SWIDTH 691 0
DWIDTH 41 0
BBX 37 52 2 -10
BITMAP
00000FFE00
0000FFFFF8
0003FFFFF8
0007FFFFF0
000FFFFFF0
001FFFFFF0
001FFFFFF0
003FFFFFF0
003FF00000
003FE00000
007FE00000
007FE00000
007FE00000
007FFC0000
007FFF8000
00FFFFF000
03FFFFFE00
0FFFFFFFC0
1FFFFFFFE0
1FFFFFFFF0
3FF3FFFFF8
3FE07FFFF8
3FE00FFFF8
7FC001FFF8
7FC0003FF8
7FC0000FF8
7FC0000FF8
FFC0000FF8
FFF0001FF8
FFFF001FF0
FFFFE01FF0
FFFFFC3FF0
7FFFFFFFE0
7FFFFFFFE0
1FFFFFFFC0
07FFFFFF80
00FFFFFE00
001FFFF800
0003FFF800
00007FF800
00001FF800
00001FF000
00001FF000
00003FF000
3FFFFFF000
3FFFFFE000
3FFFFFE000
3FFFFFC000
7FFFFF8000
7FFFFF0000
7FFFFE0000
3FFFF00000
ENDCHAR
STARTCHAR dieresis
ENCODING 168
SWIDTH 343 0
DWIDTH 21 0
BBX 22 6 4 36
BITMAP
3FC3FC
7F83FC
7F83FC
7F83FC
7F03F8
FF07F8
ENDCHAR
STARTCHAR copyright
ENCODING 169
SWIDTH 747 0
DWIDTH 45 0
BBX 39 42 4 0
BITMAP
0000BFF800
001FFFFFE0
007FFFFFF8
00FFFFFFFC
01FC0000FC
01F000003E
03C000001E
03C000001E
078000001E
078000001E
0F003FF01E
0F00FFF81E
0F01FFF01E
0E03FFF01E
1E03FE701E
1E07E0001C
1E07E0003C
1C0FC0003C
3C0FC0003C
3C0FC0003C
3C0FC0003C
3C1F800078
381F800078
781F800078
781F800078
781F800070
781F8000F0
701F8000F0
F01FFF80F0
F01FFF80E0
F01FFF81E0
F00FFF01E0
F000FE01E0
F0000003C0
F0000003C0
F000000780
F000000F80
F800001F00
7F0000FF00
3FFFFFFE00
1FFFFFF800
07FFFFE000
ENDCHAR
STARTCHAR ordfeminine
ENCODING 170
SWIDTH 423 0
DWIDTH 25 0
BBX 24 23 4 19
BITMAP
00F000
07FE7F
0FFF7F
1FFFFF
1FFFFF
3FFFFE
3FC3FE
3F81FE
7F81FE
7F01FE
7F01FC
7F01FC
FF01FC
FF01FC
FE03F8
FE03F8
FE07F8
FFFFF8
FFFFF8
FFFFF0
FFFFF0
7FF7F0
3FE7F0
ENDCHAR
STARTCHAR guillemotleft
ENCODING 171
SWIDTH 507 0
DWIDTH 30 0
BBX 28 25 3 6
BITMAP
007F07F0
007E0FE0
00FE1FC0
01FC1FC0
03F83F80
07F87F00
07F0FE00
0FE1FE00
1FC1FC00
3FC3F800
7F87F800
7F0FF000
FE1FE000
FE1FE000
FF0FE000
7F0FF000
7F07F000
3F87F000
3F83F800
3F83F800
1FC3F800
1FC1F800
0FC1FC00
0FE0FC00
07E0FE00
ENDCHAR
STARTCHAR logicalnot
ENCODING 172
SWIDTH 545 0
DWIDTH 33 0
BBX 25 16 4 3
BITMAP
7FFFFF80
7FFFFF80
7FFFFF80
7FFFFF80
FFFFFF00
FFFFFF00
FFFFFF00
00007F00
00007F00
0000FE00
0000FE00
0000FE00
0000FE00
0000FE00
0001FC00
0001FC00
ENDCHAR
STARTCHAR uni00AD
ENCODING 173
SWIDTH 379 0
DWIDTH 23 0
BBX 18 8 3 13
BITMAP
7FFFC0
7FFFC0
7FFFC0
7FFF80
FFFF80
FFFF80
FFFF80
FFFF00
ENDCHAR
STARTCHAR registered
ENCODING 174
SWIDTH 747 0
DWIDTH 45 0
BBX 39 42 4 0
BITMAP
00001FFC00
000FFFFFE0
003FFFFFF8
00FFFFFFFC
01FC0000FE
01F000003E
03C000001E
03C000001E
078000001E
078000001E
0F07FF801E
0F07FFF81E
0F07FFF81E
0E07FFFC1E
1E0FFFFC1E
1E0FC0FC1E
1E0FC0FC3C
1C0F80F83C
3C0F80F83C
3C1F81F83C
3C1FFFF03C
3C1FFFF078
381FFFE078
783FFFC078
783FFF8078
783F0F80F0
783E0FC0F0
703E0FC0F0
F07E0FC0F0
F07E0FC0E0
F07E07C1E0
F07C07C1E0
F07C07E1E0
F0000003C0
F0000003C0
F000000780
F000000F80
F800001F00
7F0000FF00
7FFFFFFE00
3FFFFFF800
07FFFFC000
ENDCHAR
STARTCHAR macron
ENCODING 175
SWIDTH 347 0
DWIDTH 21 0
BBX 22 5 4 36
BITMAP
7FFFFC
7FFFFC
7FFFFC
7FFFFC
FFFFF8
ENDCHAR
STARTCHAR degree
ENCODING 176
SWIDTH 402 0
DWIDTH 24 0
BBX 19 18 6 24
BITMAP
00FC00
0FFFC0
1FFFE0
3FFFE0
3F8FE0
3F07E0
7E07E0
7E07E0
7E07E0
7C07C0
7C07C0
FC0FC0
FC0FC0
FC1F80
FFFF80
FFFF80
7FFF00
3FFC00
ENDCHAR
STARTCHAR plusminus
ENCODING 177
SWIDTH 546 0
DWIDTH 33 0
BBX 30 35 1 0
BITMAP
0000FF00
0000FE00
0000FE00
0001FE00
0001FE00
0001FC00
0001FC00
0001FC00
03FFFFFC
03FFFFFC
07FFFFFC
07FFFFF8
07FFFFF8
07FFFFF8
07FFFFF8
0007F000
0007F000
000FF000
000FF000
000FE000
000FE000
000FE000
001FE000
001FC000
00000000
00000000
00000000
00000000
3FFFFFC0
7FFFFFC0
7FFFFF80
7FFFFF80
7FFFFF80
7FFFFF80
FFFFFF80
ENDCHAR
STARTCHAR uni00B2
ENCODING 178
SWIDTH 352 0
DWIDTH 21 0
BBX 20 23 5 25
BITMAP
07FFC0
07FFF0
0FFFF0
0FFFF0
0E07F0
0003F0
0003F0
0003F0
0007F0
003FE0
00FFE0
07FF80
1FFF00
3FF800
3FC000
7F0000
7E0000
7E0000
7FFFC0
FFFF80
FFFF80
FFFF80
FFFF80
ENDCHAR
STARTCHAR uni00B3
ENCODING 179
SWIDTH 349 0
DWIDTH 21 0
BBX 21 23 4 25
BITMAP
07FFC0
07FFE0
0FFFF0
0FFFF8
0E07F8
0003F8
0003F0
0003F0
0007F0
01FFE0
01FF80
03FF00
03FFC0
03FFC0
0007E0
0007E0
000FC0
000FC0
7FFFC0
7FFFC0
FFFF80
FFFF00
7FFC00
ENDCHAR
STARTCHAR acute
ENCODING 180
SWIDTH 256 0
DWIDTH 15 0
BBX 17 8 4 35
BITMAP
01FF80
03FE00
07FC00
0FF800
1FF000
3FE000
3FC000
FF0000
ENDCHAR
STARTCHAR uni00B5
ENCODING 181
SWIDTH 603 0
DWIDTH 36 0
BBX 37 42 -2 -11
BITMAP
007FC00FF8
007F800FF8
007F800FF0
007F800FF0
00FF800FF0
00FF801FF0
00FF001FE0
00FF001FE0
00FF001FE0
01FF003FE0
01FE003FE0
01FE003FC0
01FE003FC0
03FE003FC0
03FE007FC0
03FC007FC0
03FC007F80
03FC007F80
07FC00FF80
07FC00FF80
07F800FF00
07F800FF00
07F801FF00
0FFC03FF00
0FFF1FFF00
0FFFFFFE00
0FFFFFFE00
1FFFFDFE00
1FFFF9FE00
1FFFF1FE00
1FEFC3FC00
1FE0000000
3FE0000000
3FE0000000
3FC0000000
3FC0000000
3FC0000000
7FC0000000
7F80000000
7F80000000
7F80000000
FF80000000
ENDCHAR
STARTCHAR paragraph
ENCODING 182
SWIDTH 637 0
DWIDTH 38 0
BBX 35 50 4 -9
BITMAP
007FFF87E0
01FFFF87E0
07FFFF0FE0
07FFFF0FC0
0FFFFF0FC0
1FFFFF0FC0
1FFFFF0FC0
1FFFFE1FC0
3FFFFE1F80
3FFFFE1F80
3FFFFE1F80
3FFFFE3F80
7FFFFC3F00
7FFFFC3F00
7FFFFC3F00
7FFFFC3F00
7FFFF87F00
FFFFF87E00
FFFFF87E00
FFFFF87E00
FFFFF87E00
FFFFF0FE00
FFFFF0FC00
FFFFF0FC00
FFFFF0FC00
7FFFF1FC00
3FFFE1F800
007FE1F800
0007E1F800
000FE1F800
000FE3F800
000FC3F000
000FC3F000
000FC3F000
001FC3F000
001F87F000
001F87E000
001F87E000
001F87E000
003F87E000
003F0FE000
003F0FC000
003F0FC000
003F0FC000
007F1FC000
007E1F8000
007E1F8000
007E1F8000
00FE1F8000
00FC3F8000
ENDCHAR
STARTCHAR periodcentered
ENCODING 183
SWIDTH 299 0
DWIDTH 18 0
BBX 13 8 3 14
BITMAP
3FF8
3FF0
3FF0
3FF0
7FF0
7FE0
7FE0
FFE0
ENDCHAR
STARTCHAR cedilla
ENCODING 184
SWIDTH 184 0
DWIDTH 11 0
BBX 14 12 -6 -11
BITMAP
01FC
01F8
03F8
03F8
07F0
0FF0
0FF0
1FE0
1FE0
3FC0
7FC0
FFC0
ENDCHAR
STARTCHAR uni00B9
ENCODING 185
SWIDTH 230 0
DWIDTH 14 0
BBX 12 23 6 25
BITMAP
01F0
07F0
1FE0
7FE0
7FE0
FFE0
F7E0
CFC0
0FC0
0FC0
0FC0
0FC0
1F80
1F80
1F80
1F80
3F00
3F00
3F00
3F00
3F00
7E00
7E00
ENDCHAR
STARTCHAR ordmasculine
ENCODING 186
SWIDTH 443 0
DWIDTH 27 0
BBX 23 23 5 19
BITMAP
001F00
03FFF8
0FFFFC
0FFFFE
1FFFFE
1FFFFE
3FC0FE
3F80FE
3F80FE
7F00FE
7F01FE
7F01FC
7F01FC
7F01FC
FE01FC
FE03F8
FE03F8
FF07F8
FFFFF0
FFFFF0
7FFFE0
7FFFC0
1FFF80
ENDCHAR
STARTCHAR guillemotright
ENCODING 187
SWIDTH 507 0
DWIDTH 30 0
BBX 29 25 1 6
BITMAP
03F07E00
03F07F00
03F03F00
01F83F80
01F83F80
01FC1F80
01FC1FC0
00FE1FC0
00FE0FE0
00FF0FE0
007F0FF0
007F87F0
007F87F8
007F0FF0
00FF0FE0
01FE1FC0
01FC3FC0
03F87F80
07F07F00
0FF0FE00
0FE1FC00
1FC1FC00
3F83F800
7F07F000
FF0FE000
ENDCHAR
STARTCHAR onequarter
ENCODING 188
SWIDTH 701 0
DWIDTH 42 0
BBX 42 41 -1 0
BITMAP
000FC0003FC0
003F80007F00
01FF80007E00
03FF8000FC00
03FF8001FC00
03FF0003F800
03BF0007F000
043F000FE000
003F000FC000
007E001F8000
007E003F8000
007E007F0000
007E00FE0000
007E01FC0000
00FC03F80000
00FC03F00000
00FC07E00000
00FC0FE00000
00FC1FC1FC00
01F83F83F800
01F87F07F000
01F8FE07E000
01F8FC0FE000
0001F81FC000
0003F81F8000
0007F03F0000
000FE07E0000
001FC0FE1E00
001F80FC3E00
003F01F87C00
007F03F07C00
00FE07F0FC00
01FC07FFFF80
03F807FFFF00
07F00FFFFF00
07E00FFFFF00
0FC00FFFFF00
1FC00001F800
3F800003F800
7F000003F000
FE000003F000
ENDCHAR
STARTCHAR onehalf
ENCODING 189
SWIDTH 744 0
DWIDTH 45 0
BBX 45 41 -1 0
BITMAP
000FC0003FC0
003F80007F00
01FF80007E00
03FF8000FC00
03FF8001FC00
03FF0003F800
03BF0007F000
043F000FE000
003F000FC000
007E001F8000
007E003F8000
007E007F0000
007E00FE0000
007E01FC0000
00FC03F80000
00FC03F00000
00FC07E00000
00FC0FE00000
00FC1FC3FFC0
01F83F87FFF0
01F87F07FFF0
01F8FE0FFFF8
01F8FC0FFFF8
0001F80001F8
0003F80001F0
0007F00003F0
000FE00007F0
001FC0001FE0
001F8000FFE0
003F0003FFC0
007F000FFF00
00FE001FFC00
01FC003FE000
03F8003F0000
07F0007E0000
07E0007E0000
0FC0007FFFC0
1FC0007FFFC0
3F8000FFFF80
7F0000FFFF80
FE0000FFFF80
ENDCHAR
STARTCHAR threequarters
ENCODING 190
SWIDTH 820 0
DWIDTH 49 0
BBX 45 42 3 0
BITMAP
001000000008
0FFFC00007F0
0FFFE00007E0
0FFFF0000FC0
0FFFF0001FC0
1007F0003F80
0003F0007F00
0003F000FE00
0007F000FC00
000FE001F800
03FFC003F800
03FF0007F000
03FF000FE000
03FFC01FC000
001FC03F8000
000FC03F0000
000FC07E0000
000FC0FE0000
001FC1FC0000
FFFF83F83F80
FFFF87F07F00
FFFF0FE07E00
FFFE0FC0FC00
1FE01F81FC00
00003F83F800
00007F03F000
0000FE07E000
0001FC0FE000
0001F80FC3C0
0003F01F87C0
0007F03F07C0
000FE07E0F80
001FC07E1F80
003F80FFFFF0
007F00FFFFF0
007E01FFFFE0
00FC01FFFFE0
01FC01FFFFE0
03F800003F00
07F000003F00
0FE000007E00
1FC000007E00
ENDCHAR
STARTCHAR questiondown
ENCODING 191
SWIDTH 464 0
DWIDTH 28 0
BBX 27 42 -1 -11
BITMAP
00007FE0
00007FE0
00007FE0
00007FE0
0000FFE0
0000FFC0
0000FFC0
0000FFC0
0000FFC0
00000000
00000000
00000000
00000000
00000000
0001FF00
0001FE00
0001FE00
0001FE00
0003FE00
0007FE00
001FFC00
00FFFC00
07FFF800
0FFFF800
1FFFE000
3FFF8000
3FFC0000
3FF00000
7FF00000
7FE00000
7FE00000
7FE00000
FFE00000
FFE00000
FFFFFFC0
FFFFFFC0
7FFFFF80
7FFFFF80
7FFFFF80
3FFFFF80
1FFFFF80
03FFFC00
ENDCHAR
ENDFONT
